<?xml version="1.0" encoding="UTF-8" standalone="no"?>
<!-- Created with Inkscape (http://www.inkscape.org/) -->

<svg
   width="90mm"
   height="90mm"
   viewBox="0 0 90 89.999999"
   version="1.1"
   id="svg36"
   inkscape:version="1.1 (c4e8f9ed74, 2021-05-24)"
   sodipodi:docname="icon.svg"
   xmlns:inkscape="http://www.inkscape.org/namespaces/inkscape"
   xmlns:sodipodi="http://sodipodi.sourceforge.net/DTD/sodipodi-0.dtd"
   xmlns="http://www.w3.org/2000/svg"
   xmlns:svg="http://www.w3.org/2000/svg">
  <sodipodi:namedview
     id="namedview38"
     pagecolor="#505050"
     bordercolor="#eeeeee"
     borderopacity="1"
     inkscape:pageshadow="0"
     inkscape:pageopacity="0"
     inkscape:pagecheckerboard="0"
     inkscape:document-units="mm"
     showgrid="false"
     fit-margin-top="0"
     fit-margin-left="0"
     fit-margin-right="0"
     fit-margin-bottom="0"
     inkscape:zoom="0.69130191"
     inkscape:cx="44.119653"
     inkscape:cy="150.44078"
     inkscape:window-width="1920"
     inkscape:window-height="1011"
     inkscape:window-x="0"
     inkscape:window-y="0"
     inkscape:window-maximized="1"
     inkscape:current-layer="layer1" />
  <defs
     id="defs33" />
  <g
     inkscape:label="Calque 1"
     inkscape:groupmode="layer"
     id="layer1"
     transform="translate(-26.99967,-108.56986)">
    <path
       d="m 48.73685,182.86028 v 4.90714 h -1.5875 q -6.176369,0 -8.284768,-2.52172 -2.083594,-2.52173 -2.083594,-10.05283 v -8.14449 q 0,-5.14569 -1.339453,-7.12218 -1.314649,-1.97648 -4.787306,-1.97648 h -1.537891 v -4.87307 h 1.537891 q 3.497461,0 4.812111,-1.94241 1.314648,-1.94241 1.314648,-7.05402 v -8.17857 q 0,-7.5311 2.083594,-10.01875 2.108399,-2.52173 8.284768,-2.52173 h 1.5875 v 4.87307 h -1.736328 q -3.472658,0 -4.539259,1.4994 -1.041798,1.46533 -1.041798,6.30432 v 8.45119 q 0,5.35015 -1.141015,7.76964 -1.116212,2.4195 -3.844728,3.27143 2.753321,0.92009 3.869533,3.33958 1.11621,2.4195 1.11621,7.73557 v 8.45119 q 0,4.87307 1.041798,6.33839 1.066601,1.46533 4.539259,1.46533 z"
       id="path31128"
       style="font-size:59.5429px;line-height:1.25;font-family:'DejaVu Sans Mono';-inkscape-font-specification:'DejaVu Sans Mono';fill:#558160;fill-opacity:1;stroke-width:0.310119" />
    <path
       d="m 95.576382,182.86028 h 1.686719 q 3.497459,0 4.564069,-1.4994 1.06661,-1.49941 1.06661,-6.30432 v -8.45119 q 0,-5.31607 1.11621,-7.73557 1.11621,-2.41949 3.86953,-3.33958 -2.72851,-0.85193 -3.86953,-3.27143 -1.11621,-2.41949 -1.11621,-7.76964 v -8.45119 q 0,-4.80491 -1.06661,-6.30432 -1.06661,-1.4994 -4.564069,-1.4994 h -1.686719 v -4.87307 h 1.537891 q 6.176377,0 8.259977,2.52173 2.08359,2.48765 2.08359,10.01875 v 8.17857 q 0,5.11161 1.31465,7.05402 1.33945,1.94241 4.83692,1.94241 h 1.5875 v 4.87307 h -1.5875 q -3.49747,0 -4.83692,1.97648 -1.31465,1.97649 -1.31465,7.12218 v 8.14449 q 0,7.5311 -2.08359,10.05283 -2.0836,2.52172 -8.259977,2.52172 h -1.537891 z"
       id="path31130"
       style="font-size:59.5429px;line-height:1.25;font-family:'DejaVu Sans Mono';-inkscape-font-specification:'DejaVu Sans Mono';fill:#558160;fill-opacity:1;stroke-width:0.310119" />
    <path
       style="fill:#886a94;fill-opacity:1;stroke-width:0.0958117"
       d="m 63.520562,187.54768 c -0.03028,-0.12063 -0.0095,-0.33907 0.04613,-0.48543 0.106682,-0.28061 0.09375,-0.30295 -0.779203,-1.34649 -0.217666,-0.2602 -0.260015,-0.40695 -0.273796,-0.94872 -0.02391,-0.93959 -0.01657,-1.13525 0.0552,-1.47296 0.06375,-0.29997 -0.104574,-1.37177 -0.38092,-2.42555 -0.076,-0.28983 -0.190393,-0.8 -0.254192,-1.13372 -0.133491,-0.69823 -0.272197,-0.87833 -0.67646,-0.87833 -0.223917,0 -0.429236,-0.13467 -0.912995,-0.59882 -0.712509,-0.68364 -0.890704,-0.97312 -0.878729,-1.42749 0.0046,-0.1766 -0.05849,-0.51511 -0.140295,-0.75224 -0.222578,-0.64511 -0.293681,-1.51823 -0.163123,-2.00307 0.0655,-0.24326 0.07676,-0.44412 0.02677,-0.47781 -0.178812,-0.12053 -0.209412,-0.41536 -0.0762,-0.73417 0.142595,-0.34128 0.399735,-0.4378 0.496255,-0.18628 0.102053,0.26594 0.359651,0.1469 0.881232,-0.40719 l 0.518585,-0.55092 -0.06596,0.36895 c -0.05946,0.3326 -0.169431,0.63533 -0.466296,1.28366 -0.178062,0.38887 0.02566,0.35508 0.466272,-0.0774 0.328134,-0.32204 0.452158,-0.39358 0.512632,-0.29575 0.06207,0.10044 0.151579,0.0649 0.403484,-0.16027 0.321466,-0.28733 0.323714,-0.29522 0.323714,-1.13545 v -0.84606 l 0.269276,-0.0308 c 0.148103,-0.017 0.320564,0.009 0.383251,0.0587 0.192967,0.15157 0.616309,0.21625 0.849863,0.12986 0.506595,-0.18742 0.659366,0.26223 0.17432,0.51305 -0.200816,0.10384 -0.287435,0.21944 -0.287435,0.38358 0,0.12922 -0.103547,0.46226 -0.23011,0.74009 -0.258595,0.56767 -0.536866,1.48187 -0.535448,1.75911 5.43e-4,0.10076 0.103477,0.40343 0.228803,0.67258 0.125326,0.26915 0.258812,0.67875 0.296631,0.91021 0.03781,0.23146 0.153464,0.56018 0.25699,0.73048 0.174252,0.28666 0.171288,0.50476 -0.0068,0.50476 -0.07079,0 -0.500765,-0.81517 -0.619843,-1.17513 -0.03078,-0.093 -0.15583,-0.20708 -0.277914,-0.25351 -0.122084,-0.0464 -0.279371,-0.15355 -0.34953,-0.23809 -0.280563,-0.33806 -0.325406,-0.16454 -0.263616,1.02 0.03368,0.64553 0.102415,1.34616 0.152763,1.55694 0.05034,0.21079 0.181225,0.98687 0.290846,1.72462 0.215702,1.45169 0.386934,2.19443 0.541544,2.34905 0.06704,0.0671 0.223145,0.008 0.492099,-0.18717 0.513441,-0.37194 0.586997,-0.79909 0.388766,-2.25769 -0.142134,-1.04583 -0.141478,-1.05871 0.08526,-1.67671 0.125671,-0.34253 0.235514,-0.64433 0.244094,-0.67068 0.0086,-0.0264 -0.05795,-0.1859 -0.147822,-0.35454 -0.198676,-0.37279 -0.207421,-0.56619 -0.0287,-0.63478 0.208356,-0.0799 0.415018,0.2266 0.473177,0.70188 0.111712,0.91292 0.351407,2.1874 0.549596,2.92227 0.441592,1.63736 0.573279,2.05245 0.670132,2.1123 0.171158,0.10578 0.323945,0.55262 0.326097,0.95368 0.0016,0.30156 0.03818,0.38344 0.17154,0.38416 0.155452,8.2e-4 0.453292,0.42164 0.453292,0.64043 0,0.27138 0.538658,1.39913 0.752263,1.57495 0.220597,0.18159 0.232895,0.22261 0.110843,0.36967 -0.120842,0.14561 -0.11544,0.18139 0.04509,0.29877 0.100298,0.0733 0.213449,0.13335 0.251442,0.13335 0.03799,0 0.09775,0.16968 0.132782,0.37706 0.04212,0.24926 0.143424,0.4293 0.298911,0.53117 0.129364,0.0848 0.20973,0.19534 0.178594,0.24572 -0.0336,0.0544 -1.046492,0.0916 -2.492342,0.0916 h -2.435725 z m -0.427667,-4.95453 c 0,-0.0527 -0.01901,-0.0958 -0.04225,-0.0958 -0.02325,0 -0.0689,0.0431 -0.101472,0.0958 -0.03257,0.0527 -0.01356,0.0958 0.04225,0.0958 0.0558,0 0.101472,-0.0431 0.101472,-0.0958 z m 12.300825,4.93769 c 0.169303,-0.2584 0.198564,-0.60025 0.0689,-0.80492 -0.05059,-0.0798 -0.03156,-0.22926 0.04878,-0.38324 0.07243,-0.13882 0.132288,-0.33863 0.133024,-0.44401 0.0013,-0.18278 0.367241,-0.43116 0.635268,-0.43116 0.06499,0 0.148431,-0.0954 0.185427,-0.21194 0.037,-0.11657 0.169246,-0.29216 0.293891,-0.3902 0.124645,-0.098 0.226237,-0.25058 0.225763,-0.33898 -5.43e-4,-0.0884 0.139649,-0.27662 0.311388,-0.41828 0.250332,-0.20648 0.288503,-0.28153 0.192489,-0.37845 -0.163436,-0.16499 -0.15078,-0.51244 0.02396,-0.65745 0.185128,-0.15364 0.184967,-0.44273 -2.72e-4,-0.51382 -0.0792,-0.0304 -0.536288,-0.12332 -1.015751,-0.2065 -2.278442,-0.39533 -4.504295,-1.35459 -6.324824,-2.7258 -0.547133,-0.41209 -1.674261,-1.40478 -2.50473,-2.20597 -1.339649,-1.29244 -1.546025,-1.53401 -1.829861,-2.142 -0.470271,-1.00733 -0.574362,-1.40039 -0.454231,-1.71525 0.150017,-0.39319 0.40198,-0.32533 0.818092,0.22031 0.202921,0.26609 0.481252,0.54224 0.618512,0.61368 0.137262,0.0714 0.3545,0.2422 0.482749,0.37948 0.208261,0.22291 0.281591,0.24317 0.686051,0.18952 0.441986,-0.0586 1.17654,0.12692 1.508875,0.38116 0.188768,0.14441 1.429178,0.1556 1.546732,0.014 0.118061,-0.14226 1.498783,-0.1846 1.582874,-0.0486 0.03222,0.0522 0.251605,0.0948 0.487503,0.0948 0.414521,0 0.43486,0.0139 0.606572,0.41449 0.140816,0.32851 0.170931,0.59784 0.145176,1.29848 -0.01787,0.4862 -0.05604,0.95816 -0.0848,1.04881 -0.08709,0.27438 0.719694,1.03876 1.178152,1.11621 0.209197,0.0354 0.455553,0.14735 0.547457,0.24891 0.09191,0.10156 0.219834,0.18464 0.284285,0.18464 0.06445,0 0.177064,0.0902 0.250252,0.20041 0.08219,0.12378 0.260678,0.21304 0.466792,0.23343 0.183548,0.0182 0.549301,0.0763 0.812783,0.12921 0.805845,0.16185 1.497415,0.12994 1.820429,-0.084 0.158089,-0.1047 0.36205,-0.19064 0.453246,-0.19099 0.228434,-8.2e-4 1.241367,-0.66065 1.176188,-0.76611 -0.0301,-0.0487 -0.181685,-0.0404 -0.352739,0.0192 -0.255494,0.0891 -0.319106,0.0784 -0.429037,-0.072 -0.15053,-0.20586 -0.172724,-0.61895 -0.03325,-0.61895 0.05269,0 0.09581,-0.0689 0.09581,-0.15312 0,-0.13258 -0.08035,-0.14228 -0.598824,-0.0723 -4.738455,-0.17174 -0.36185,-3.55912 -0.215586,-3.60701 0,-0.30297 -1.073755,-0.44829 -3.12046,-0.4223 -2.022089,0.0257 -2.19001,-0.01 -2.056145,-0.43133 0.06343,-0.19982 0.972121,-0.77517 1.224292,-0.77517 0.07935,0 0.193985,-0.0599 0.254744,-0.13311 0.154207,-0.1858 0.57566,-0.24968 0.843174,-0.1278 0.164146,0.0748 0.255071,0.0721 0.337139,-0.01 0.182989,-0.18299 0.457298,-0.13545 0.457298,0.0792 0,0.15801 0.06388,0.19162 0.364086,0.19162 0.200246,0 0.412583,0.0485 0.471855,0.10778 0.123945,0.12394 0.984488,0.0284 0.984488,-0.1093 0,-0.0471 -0.161682,-0.11275 -0.359296,-0.14592 -0.197612,-0.0332 -0.50109,-0.1037 -0.674394,-0.15672 -0.263545,-0.0806 -0.304705,-0.13025 -0.251581,-0.30332 0.08473,-0.27603 0.107322,-0.29068 0.529696,-0.3433 0.03236,-0.004 0.178344,-0.1798 0.32442,-0.39058 0.299,-0.43146 0.38663,-0.46806 0.458914,-0.19163 0.06074,0.23227 0.642924,0.2823 0.642924,0.0553 0,-0.20179 -0.455557,-0.70679 -0.698845,-0.77469 -4.282686,-1.03288 -1.878123,-0.47614 -1.410927,-1.66084 0.398433,-0.1389 0.867285,-0.14168 1.217273,-0.007 0.148347,0.057 0.549971,0.12125 0.892499,0.1428 0.342527,0.0215 0.82483,0.0901 1.071785,0.15245 0.40678,0.10263 0.492382,0.0923 0.910214,-0.10994 0.253665,-0.12277 0.523715,-0.25212 0.600118,-0.28744 0.334906,-0.15484 0.500068,-0.54835 0.552751,-1.31698 0.04887,-0.71311 0.03112,-0.81697 -0.244013,-1.42745 -0.316324,-0.70188 -0.538316,-1.44251 -0.642475,-2.14348 -0.209899,-2.74902 -3.433722,-5.44071 -4.825849,-2.1836 -0.02882,0.12786 2.034136,0.43982 1.756573,0.72639 -0.490647,0.50656 -0.510796,0.51674 -0.72551,0.36634 -0.299488,-0.20977 -0.369834,-0.19517 -0.369834,0.0767 0,0.30872 -0.684678,0.90542 -1.533994,1.33689 -0.824322,0.41878 -1.279859,0.48428 -1.321796,0.19006 -0.03343,-0.2345 -0.261074,-0.31795 -0.872458,-0.31984 -0.630939,-0.002 -0.144862,-1.05215 -0.849002,-1.51497 -0.53081,-0.34889 -1.974657,0.36392 -2.383729,0.36392 -0.572717,0 -1.087231,-0.15953 -1.087231,-0.3371 0,-0.0697 -0.12637,-0.1545 -0.280816,-0.18842 -0.36201,-0.0795 -0.559265,-0.30154 -0.404971,-0.45583 0.061,-0.061 0.110914,-0.22126 0.110914,-0.35614 0,-0.13829 0.08045,-0.29546 0.184482,-0.36043 0.101462,-0.0634 0.198475,-0.20635 0.215577,-0.31776 0.02295,-0.14953 0.169018,-0.24997 0.558061,-0.38376 0.289831,-0.0997 0.647051,-0.18263 0.793822,-0.18436 0.146769,-0.002 0.362346,-0.0656 0.479058,-0.14197 0.116713,-0.0763 0.461583,-0.20373 0.766378,-0.28304 0.304793,-0.0793 0.666311,-0.23241 0.803371,-0.34022 0.13706,-0.10781 0.329616,-0.19602 0.427903,-0.19602 0.09829,0 0.178703,-0.0439 0.178703,-0.0976 0,-0.0571 0.102611,-0.0719 0.247234,-0.0356 0.17267,0.0433 0.327661,0.003 0.5139,-0.1351 0.146664,-0.10843 0.434227,-0.22535 0.639024,-0.25982 0.562668,-0.0947 1.294772,-0.33626 1.629227,-0.53758 0.169642,-0.10212 0.480183,-0.18043 0.718592,-0.18123 2.616306,-0.98738 1.927196,2.40364 4.128719,0.63409 0.1207,-0.12627 0.370359,-0.25241 0.554795,-0.28031 0.662744,-0.10027 1.301898,-0.30839 1.597209,-0.5201 0.165389,-0.11856 0.362821,-0.21557 0.438737,-0.21557 0.07592,0 0.216068,-0.0862 0.311449,-0.19163 0.09538,-0.10539 0.22989,-0.19162 0.298915,-0.19162 0.151074,0 0.323862,-0.29856 0.323862,-0.5596 0,-0.1414 -0.04793,-0.17642 -0.190458,-0.13915 -0.231522,0.0606 -0.36123,-0.20013 -0.197654,-0.39723 0.06181,-0.0744 0.09897,-0.32083 0.08258,-0.54745 -0.02376,-0.32832 -0.07849,-0.43604 -0.269339,-0.53014 -0.174778,-0.0862 -0.252482,-0.21628 -0.287435,-0.48131 -0.04616,-0.34995 -0.06363,-0.36504 -0.479061,-0.41359 -0.498884,-0.0583 -0.670686,-0.14502 -0.670686,-0.33851 0,-0.13378 0.227933,-0.1885 0.62278,-0.14951 0.109596,0.0108 0.281072,-0.0926 0.400581,-0.24157 0.177325,-0.22106 0.231715,-0.2416 0.359296,-0.13573 0.130859,0.10861 0.150337,0.0877 0.150337,-0.16102 0,-0.15719 0.107787,-0.44464 0.239529,-0.63877 0.312764,-0.46088 0.314179,-0.866 0.0038,-1.06941 -0.129686,-0.085 -0.261512,-0.23553 -0.292946,-0.33457 -0.06296,-0.19836 -0.575823,-0.37628 -1.087141,-0.37712 -0.248977,-2.7e-4 -0.396298,-0.0812 -0.646731,-0.3546 -0.178368,-0.19474 -0.324309,-0.40921 -0.324309,-0.4766 0,-0.14983 -0.544371,-0.44505 -0.673499,-0.36525 -0.05115,0.0316 -0.09373,0.1735 -0.09461,0.31531 l -0.0016,0.25782 -0.204895,-0.32003 c -0.196891,-0.30754 -0.222088,-0.31748 -0.645115,-0.25452 -0.242126,0.036 -0.483341,0.10048 -0.536039,0.14323 -0.137222,0.11129 -0.632841,0.14331 -0.890811,0.0575 -0.164273,-0.0546 -0.302435,-0.0104 -0.544525,0.17425 -0.178418,0.13608 -0.38117,0.24997 -0.450556,0.25309 -0.121112,0.005 -0.48901,0.18671 -1.286994,0.63418 -0.204685,0.11478 -0.489592,0.35897 -0.633123,0.54265 -0.297487,0.38069 -0.79751,0.66462 -1.036748,0.58868 -0.281816,-0.0895 -0.650963,0.12437 -0.902409,0.5227 -0.454935,0.72065 -0.245706,2.34181 0.341422,2.64543 0.31717,0.16401 0.326892,0.36166 0.02002,0.40715 -0.275189,0.0408 -0.70368,-0.35264 -1.179589,-1.0831 -0.308335,-0.47325 -0.449862,-0.6142 -0.576378,-0.57405 -0.121647,0.0386 -0.184401,-0.0134 -0.228546,-0.18924 -0.04686,-0.18668 -0.122142,-0.24245 -0.327303,-0.24245 -0.146546,0 -0.320874,0.0539 -0.38739,0.11976 -0.09687,0.0959 -0.139772,0.0864 -0.21555,-0.0479 -0.112236,-0.19892 -0.812285,-0.23764 -0.875361,-0.0484 -0.07572,0.22715 0.14665,0.86388 0.31728,0.90849 0.09232,0.0242 0.189353,0.12615 0.21564,0.22667 0.0594,0.22711 0.418064,0.24166 0.721295,0.0293 0.298986,-0.20942 0.382908,-0.0881 0.127281,0.18399 -0.251766,0.268 -0.262342,0.40818 -0.0403,0.53419 0.159498,0.0905 0.159411,0.1035 -0.0018,0.26663 -0.162801,0.16473 -0.207218,0.16154 -1.126381,-0.0808 l -0.956897,-0.25226 -0.06222,0.25387 c -0.03422,0.13963 -0.157108,0.34307 -0.273086,0.45211 -0.115979,0.10904 -0.229236,0.25335 -0.251683,0.3207 -0.03229,0.0969 -0.125653,0.0996 -0.447126,0.013 -0.454595,-0.12241 -0.593513,-0.0786 -0.593513,0.18739 0,0.0996 -0.150905,0.29619 -0.335341,0.43687 -0.18444,0.14067 -0.335344,0.33452 -0.335344,0.43076 0,0.0992 -0.238625,0.36163 -0.550919,0.6059 -0.797975,0.62416 -0.932099,0.77327 -1.624184,1.80566 -0.392985,0.58621 -0.603469,0.98913 -0.566735,1.08485 0.03214,0.0838 -0.02597,0.35394 -0.129143,0.60042 -0.144621,0.34551 -0.197019,0.74332 -0.228806,1.7371 -0.03805,1.18971 -0.0576,1.30221 -0.253859,1.46113 -0.269088,0.21789 -0.363858,0.21533 -0.718363,-0.0194 -0.375853,-0.24891 -0.543109,-0.24087 -0.805814,0.0387 -0.119042,0.12671 -0.364019,0.25807 -0.544392,0.29191 -0.414068,0.0777 -0.659338,0.42441 -0.580182,0.82019 0.07127,0.35634 -0.102326,0.38174 -0.405241,0.0593 -0.527877,-0.5619 -0.381133,-1.48128 0.341168,-2.1375 l 0.440683,-0.40036 -0.310899,-0.18908 c -0.170992,-0.10398 -0.506198,-0.21834 -0.744898,-0.25414 -0.530302,-0.0795 -0.688444,0.0461 -0.763619,0.60656 -0.02913,0.21725 -0.113328,0.44509 -0.187085,0.50631 -0.221655,0.18395 -0.572778,-0.22881 -0.647376,-0.76103 -0.03463,-0.24709 -0.124545,-0.55706 -0.199798,-0.68879 -0.125495,-0.21971 -0.137022,-0.16019 -0.139187,0.71858 -0.0024,1.01132 0.124781,1.60408 0.463819,2.16022 0.239874,0.39348 0.249912,0.47461 0.05871,0.47461 -0.07905,0 -0.143717,0.0335 -0.143717,0.0744 0,0.10921 0.674688,0.97922 1.0325,1.33142 0.206277,0.20303 0.3079,0.39398 0.305955,0.57487 -0.0024,0.23029 -0.01755,0.24574 -0.100574,0.10318 -0.290273,-0.49837 -0.611418,0.0384 -0.858453,1.43483 -0.175165,0.99014 -0.388349,1.50842 -0.592476,1.44037 -0.05776,-0.0193 -0.173583,-0.16222 -0.257377,-0.31772 -0.08379,-0.15549 -0.249363,-0.41854 -0.36793,-0.58456 -0.118567,-0.16601 -0.215578,-0.32539 -0.215578,-0.35418 0,-0.0288 -0.250943,-0.60419 -0.557651,-1.27867 -0.728301,-1.6016 -1.494647,-3.71352 -1.696606,-4.67556 -0.0885,-0.42158 -0.23885,-1.08986 -0.334111,-1.48509 -0.151169,-0.62719 -0.262103,-1.36528 -0.442811,-2.94622 -0.02815,-0.24626 -0.09575,-0.40719 -0.171044,-0.40719 -0.130427,0 -0.72627,1.03354 -0.725794,1.25896 5.43e-4,0.21198 -0.500346,1.32796 -0.595919,1.32796 -0.05092,0 -0.06222,-0.31202 -0.02689,-0.74255 0.06271,-0.76417 0.07326,-0.78999 0.994351,-2.4343 0.240621,-0.42955 0.302074,-0.64823 0.296183,-1.05392 -0.01915,-1.31758 -0.0047,-1.42214 0.19639,-1.42214 0.219022,0 0.219982,0.004 0.09611,0.3291 -0.07207,0.1896 -0.06348,0.24577 0.03766,0.24577 0.161321,0 0.261181,0.23587 0.18448,0.43575 -0.03265,0.0851 0.01694,0.20234 0.116394,0.27506 0.13102,0.0958 0.175479,0.26418 0.182204,0.69003 l 0.0089,0.56331 0.642472,0.0554 c 0.438918,0.0379 0.707677,0.11376 0.84827,0.23953 0.252982,0.22631 0.691244,0.90338 0.626598,0.96803 -0.09366,0.0936 -0.7905,0.21757 -1.23611,0.21981 -0.407806,0.003 -0.454971,0.0247 -0.4538,0.21787 8.14e-4,0.11856 0.02694,0.3112 0.05828,0.4281 0.05467,0.20394 0.07056,0.20685 0.393638,0.0719 0.513282,-0.21446 0.810851,-0.17164 1.319332,0.18988 0.645982,0.45928 0.734396,0.35978 0.354195,-0.39863 -0.160566,-0.32029 -0.09913,-0.52954 0.09768,-0.33273 0.06236,0.0624 0.171497,0.11338 0.242536,0.11338 0.07103,0 0.374998,0.15807 0.675473,0.35126 0.632321,0.40657 1.029264,0.51854 2.04942,0.57808 0.598927,0.035 0.819621,0.006 1.180753,-0.15347 0.528018,-0.23357 0.486461,-0.39263 -0.102586,-0.39263 -0.234024,0 -0.425497,-0.0418 -0.425497,-0.0929 0,-0.11191 1.007214,-0.76944 1.178652,-0.76944 0.200188,0 0.983898,-0.83565 1.169294,-1.24678 0.184154,-0.40838 0.144002,-0.58151 -0.08986,-0.38742 -0.177318,0.14716 -0.341855,0.0536 -0.341855,-0.19434 0,-0.18062 -0.01256,-0.18194 -0.302606,-0.0319 -0.166432,0.0861 -0.568957,0.3658 -0.8945,0.62163 -0.706752,0.55542 -0.965149,0.66399 -1.580326,0.66399 -0.356719,0 -0.531983,-0.0559 -0.750138,-0.23954 -0.156564,-0.13173 -0.358861,-0.23952 -0.449546,-0.23952 -0.14436,0 -0.156516,0.0669 -0.09769,0.53771 0.08378,0.67055 -0.06674,0.62469 -0.291659,-0.0889 -0.17473,-0.5543 -0.370627,-0.84125 -0.69158,-1.01302 -0.217708,-0.11651 -0.285786,-0.4326 -0.115799,-0.53766 0.191566,-0.1184 0.103203,-0.52771 -0.137608,-0.63742 -0.32152,-0.1465 -0.526277,-0.0434 -0.594899,0.29981 -0.07035,0.35176 -0.337498,0.38803 -0.556364,0.0756 -0.120343,-0.17181 -0.18297,-0.19356 -0.316822,-0.11002 -0.222513,0.13889 -0.592455,0.1041 -0.699988,-0.0658 -0.04767,-0.0753 -0.08734,-0.32009 -0.08815,-0.5439 -0.0011,-0.33562 0.06053,-0.47555 0.352349,-0.79856 0.340029,-0.37637 0.370493,-0.38913 0.781766,-0.32746 0.248248,0.0373 0.68662,0.22755 1.043959,0.45323 0.720536,0.45506 1.294936,0.59085 1.913212,0.45229 0.239712,-0.0537 0.461853,-0.0717 0.493648,-0.0398 0.0318,0.0318 -0.03883,0.23424 -0.15694,0.44987 -0.118113,0.21563 -0.194919,0.41189 -0.17068,0.43612 0.02422,0.0242 0.423286,-0.34527 0.88677,-0.82112 0.463485,-0.47585 1.014523,-0.95535 1.224527,-1.06556 0.421474,-0.22116 1.358036,-0.27586 1.689168,-0.0986 0.104533,0.0559 0.306498,0.0883 0.448807,0.0719 0.240732,-0.0277 0.218725,-0.056 -0.316126,-0.40579 -0.749863,-0.49038 -1.205749,-0.50648 -2.084961,-0.0737 -0.72189,0.35539 -0.837307,0.37224 -0.837307,0.12222 0,-0.101 -0.05055,-0.20048 -0.11232,-0.22108 -0.180012,-0.06 0.306811,-0.6453 0.707329,-0.85041 0.428266,-0.21932 0.82656,-0.23117 1.288103,-0.0383 0.189184,0.0791 0.419652,0.14371 0.51216,0.14371 0.0925,0 0.221864,0.0647 0.287464,0.14372 0.0656,0.0791 0.201745,0.14372 0.302538,0.14372 0.155467,0 0.167212,-0.03 0.07743,-0.19776 -0.13414,-0.25064 0.02788,-0.47293 0.344697,-0.47293 0.122179,0 0.250042,-0.0451 0.284141,-0.10031 0.03827,-0.0619 0.269622,-0.0789 0.604479,-0.0445 1.540349,0.1587 1.590609,0.15825 1.931646,-0.0177 0.339581,-0.17518 0.634844,-0.62134 0.526837,-0.7961 -0.03243,-0.0525 -0.161313,-0.0954 -0.286393,-0.0954 -0.143273,0 -0.249922,-0.0709 -0.288239,-0.19163 -0.08107,-0.25541 -0.173688,-0.24335 -0.77548,0.10096 -0.493487,0.28234 -0.66782,0.29031 -0.974347,0.0445 -0.01385,-0.0111 0.04323,-0.184 0.126863,-0.38418 0.206302,-0.49375 0.09792,-0.55076 -0.935784,-0.4922 l -0.834134,0.0473 -0.291659,-0.33218 c -0.364235,-0.41484 -0.376068,-0.68141 -0.03598,-0.81071 0.140623,-0.0535 0.302305,-0.15624 0.359296,-0.22838 0.057,-0.0721 0.330176,-0.24754 0.607078,-0.38976 0.592418,-0.30427 0.677291,-0.29216 1.80833,0.25797 0.700248,0.34059 0.864804,0.38467 1.285409,0.34425 0.712331,-0.0685 1.098884,-0.42225 1.624556,-1.48692 0.284234,-0.57567 0.486763,-0.87547 0.594344,-0.87978 0.09725,-0.004 0.237511,-0.17456 0.347123,-0.42236 0.157752,-0.35662 0.67904,-0.82973 0.914222,-0.82973 0.120534,0 0.05577,0.25003 -0.178976,0.69101 -0.392504,0.73731 -0.298046,0.96983 0.187918,0.46259 0.427088,-0.44578 1.176059,-0.74632 2.255286,-0.90497 0.353364,-0.0519 1.257751,-0.41421 1.532994,-0.61405 0.49379,-0.35853 0.773275,-1.28543 0.449105,-1.48944 -0.142297,-0.0895 -0.205657,-0.0703 -0.350701,0.10629 -0.110088,0.13406 -0.282976,0.21557 -0.45722,0.21557 -0.19258,0 -0.362989,0.0929 -0.54498,0.29718 -0.176192,0.19775 -0.296783,0.26518 -0.360418,0.20155 -0.05445,-0.0545 -0.339198,-0.0735 -0.661265,-0.0443 -0.470634,0.0427 -0.565633,0.0262 -0.565633,-0.0983 0,-0.43488 2.098872,-1.60715 3.736668,-2.08701 1.216194,-0.35634 1.849158,-0.48539 2.324565,-0.47395 0.331124,0.008 0.471874,-0.0298 0.513264,-0.13764 0.03137,-0.0817 0.138649,-0.14863 0.238405,-0.14863 0.09976,0 0.181373,-0.0324 0.181373,-0.0719 0,-0.0395 0.269472,-0.15521 0.598828,-0.25708 0.74606,-0.23073 0.878899,-0.32114 0.731992,-0.49815 -0.0598,-0.0721 -0.152397,-0.13101 -0.205773,-0.13101 -0.05338,0 -0.196674,-0.097 -0.31844,-0.21557 -0.121792,-0.11862 -0.322271,-0.31264 -0.445537,-0.4312 -0.123261,-0.11857 -0.291369,-0.21558 -0.373567,-0.21558 -0.189744,0 -0.504039,-0.34095 -0.427881,-0.46417 0.03161,-0.0511 0.02154,-0.19015 -0.02238,-0.30889 -0.100064,-0.27049 0.206443,-0.95156 0.428239,-0.95156 0.107473,0 0.137223,-0.059 0.100512,-0.19941 -0.04143,-0.15841 0.01537,-0.22762 0.276261,-0.33662 0.367835,-0.1537 0.425146,-0.31892 0.136783,-0.39432 -0.242709,-0.0635 -0.24285,-0.16079 -5.43e-4,-0.32747 0.265387,-0.1825 0.161057,-0.5626 -0.154415,-0.5626 -0.148439,0 -0.2331,-0.0587 -0.241918,-0.16768 -0.0145,-0.17935 -0.0393,-0.44874 -0.06586,-0.71558 -0.0095,-0.0949 -0.0708,-0.14378 -0.144754,-0.1154 -0.161177,0.0619 -0.336279,-0.1429 -0.381456,-0.44604 -0.08547,-0.57354 -2.028916,-0.40204 -4.280777,0.37775 -0.237136,0.0821 -0.538944,0.20461 -0.670686,0.27219 -0.131741,0.0676 -0.32576,0.1222 -0.431153,0.12135 -0.175795,-0.001 -0.171837,-0.0172 0.0479,-0.19137 0.480943,-0.38116 2.737029,-1.43471 3.07247,-1.43479 0.180874,-4e-5 0.652223,-0.0704 1.047445,-0.1564 0.395226,-0.086 0.869495,-0.18368 1.053934,-0.21712 0.197193,-0.0358 0.335341,-0.11684 0.335341,-0.19681 0,-0.30463 -0.945945,-0.34611 -3.257607,-0.14288 -0.72559,0.0638 -1.695736,-0.12698 -1.952763,-0.38401 -0.217913,-0.21791 -0.1693,-1.94984 0.05945,-2.11793 0.16104,-0.11834 0.161018,-0.13704 -5.43e-4,-0.41192 -0.09668,-0.16455 -0.130506,-0.31187 -0.07891,-0.34375 0.08281,-0.0512 0.04785,-0.97979 -0.04841,-1.2856 -0.03289,-0.10449 -0.06956,-0.10693 -0.183679,-0.0122 -0.07842,0.0651 -0.142584,0.10147 -0.142584,0.0809 0,-0.20682 -0.603418,-2.33855 -0.755423,-2.66873 -0.10917,-0.23713 -0.199436,-0.53278 -0.200593,-0.65698 -0.0016,-0.15951 -0.04373,-0.20986 -0.143812,-0.17145 -0.07794,0.0299 -0.264122,0.002 -0.413744,-0.0616 -0.3442,-0.14675 -1.122246,-1.01784 -1.205538,-1.3497 -0.03472,-0.13826 -0.122921,-0.25137 -0.196028,-0.25137 -0.08664,0 -0.115117,0.0681 -0.08178,0.19554 0.049,0.18736 0.02371,0.19273 -0.604897,0.12833 -0.495963,-0.0508 -0.695424,-0.11586 -0.817464,-0.26657 -0.156544,-0.19333 -0.16726,-0.19408 -0.35422,-0.0249 -0.155633,0.14085 -0.231646,0.15368 -0.394369,0.0666 -0.261164,-0.13977 -0.418696,-0.0378 -0.35202,0.22784 0.03982,0.15866 -0.01217,0.24849 -0.212146,0.36663 -0.33827,0.19982 -0.454704,0.12265 -0.738193,-0.48923 -0.126109,-0.27219 -0.296161,-0.52056 -0.377895,-0.55192 -0.221226,-0.0849 -0.433598,0.1416 -0.433598,0.46243 0,0.26109 -0.02374,0.28052 -0.307704,0.25175 l -0.307705,-0.0312 0.0066,0.45511 c 0.0067,0.46949 -0.09537,0.60789 -0.187803,0.25442 -0.04367,-0.16697 -0.100522,-0.19013 -0.338459,-0.13787 -0.173816,0.0382 -0.364299,0.0139 -0.48566,-0.0619 -0.151885,-0.0949 -0.24141,-0.0986 -0.374021,-0.0158 -0.09589,0.0599 -0.296582,0.0855 -0.445991,0.057 -0.24536,-0.0469 -0.266085,-0.0306 -0.214154,0.16795 0.03163,0.12093 0.03247,0.34504 0.0018,0.49803 -0.04306,0.21532 -0.10139,0.27162 -0.258235,0.24923 -0.111435,-0.0159 -0.202609,-0.0853 -0.202609,-0.15415 0,-0.0689 -0.08962,-0.19823 -0.199157,-0.28744 -0.109535,-0.0892 -0.359468,-0.36312 -0.555407,-0.6087 -0.211514,-0.26509 -0.510134,-0.50807 -0.735012,-0.59804 -0.265081,-0.10607 -0.378759,-0.2093 -0.378759,-0.34395 0,-0.12351 -0.06363,-0.1924 -0.177725,-0.1924 -0.148009,0 -0.757737,-0.58385 -1.230156,-1.17795 -0.06293,-0.0791 -0.160952,-0.1594 -0.217823,-0.17836 -0.131394,-0.0438 -0.01838,-0.65575 0.121098,-0.65575 0.05513,0 0.179091,0.0714 0.275457,0.15857 0.165922,0.15016 0.175235,0.14381 0.175585,-0.11976 2.72e-4,-0.21529 0.100942,-0.35972 0.44437,-0.63763 0.244198,-0.19761 0.50126,-0.3593 0.57125,-0.3593 0.118111,0 0.630327,-0.19858 1.018716,-0.39494 0.09151,-0.0463 0.225816,-0.0841 0.298467,-0.0841 0.07266,0 0.241723,-0.0862 0.375708,-0.19163 0.133985,-0.10539 0.323649,-0.19162 0.421475,-0.19162 0.09783,0 0.398969,-0.0808 0.66921,-0.17959 0.270241,-0.0988 0.722343,-0.23273 1.004675,-0.29768 0.282329,-0.0649 0.737011,-0.22126 1.010405,-0.34737 0.273396,-0.12611 0.590109,-0.22929 0.703809,-0.22929 0.113699,0 0.321167,-0.06 0.461041,-0.13339 0.643384,-0.33745 1.071849,-0.46481 1.365911,-0.406 0.178062,0.0356 0.359796,0.0156 0.436445,-0.048 0.08167,-0.0678 0.296071,-0.0864 0.566996,-0.0493 0.332529,0.0456 0.524098,0.0146 0.809251,-0.13087 0.411104,-0.20973 0.921439,-0.24286 1.435789,-0.0932 0.292674,0.0851 0.355887,0.0717 0.503329,-0.1076 0.129119,-0.15696 0.234866,-0.19173 0.451394,-0.14843 0.155525,0.0311 0.307245,0.0169 0.33716,-0.0315 0.06262,-0.10131 0.807632,-0.0768 0.984307,0.0324 0.06516,0.0403 0.118479,0.15332 0.118479,0.2512 0,0.0979 0.100584,0.25703 0.223521,0.35365 0.160544,0.12616 0.337778,0.5401 0.629032,1.46912 0.283886,0.90552 0.475472,1.35674 0.638785,1.50444 0.128303,0.11604 0.233278,0.27245 0.233278,0.34757 0,0.31963 0.671318,0.50629 1.255306,0.34904 0.275625,-0.0742 0.416171,-0.0683 0.564257,0.0237 0.182176,0.11325 0.283937,0.0309 1.335239,-1.08059 0.884488,-0.93512 1.22681,-1.23248 1.536508,-1.33469 0.219162,-0.0723 0.440464,-0.20996 0.491784,-0.30586 0.140259,-0.26207 0.600316,-0.22805 0.752136,0.0556 0.06769,0.12649 0.296637,0.30824 0.508765,0.4039 0.391412,0.1765 0.646092,0.56933 0.646092,0.99656 0,0.12217 -0.381169,0.59854 -0.98412,1.22991 -0.929391,0.97319 -2.560925,3.21256 -2.560925,3.51501 0,0.0709 -0.238108,0.38613 -0.529127,0.70047 -0.693408,0.74896 -1.137717,1.71724 -1.391557,3.03261 -0.108355,0.56148 -0.287036,1.20617 -0.397069,1.43266 -0.283114,0.58273 -0.191103,0.8537 0.38984,1.14808 0.422023,0.21386 0.469027,0.2717 0.518107,0.63763 0.08012,0.59735 0.318603,0.77997 1.132087,0.86689 0.518197,0.0554 0.744629,0.12749 0.921257,0.29343 0.188293,0.1769 0.35004,0.22218 0.825306,0.23105 0.750901,0.014 1.388712,0.29768 2.411542,1.07252 1.707574,1.29356 3.531529,3.44227 4.600934,5.42012 1.06018,1.96079 2.101023,6.67712 1.916138,8.68253 -0.0432,0.46862 -0.01116,0.78127 0.12942,1.26303 0.14474,0.496 0.175079,0.81178 0.134653,1.40157 -0.04808,0.70145 -0.02913,0.81309 0.240876,1.41971 0.161184,0.36211 0.319281,0.77923 0.35133,0.92693 0.03651,0.16827 0.180204,0.34048 0.384849,0.46122 0.501312,0.29578 0.669194,0.89866 0.663898,2.38413 -0.0038,1.05285 -0.03057,1.2485 -0.221824,1.61826 -0.194724,0.37648 -0.211934,0.51222 -0.164011,1.29347 0.02945,0.48006 0.08134,1.33468 0.115334,1.89916 l 0.06179,1.02632 -0.76984,1.56875 c -0.612413,1.24798 -0.868015,1.66506 -1.249973,2.03967 -0.583097,0.57189 -0.684379,0.81872 -0.684379,1.66786 0,0.92617 -0.158325,1.95801 -0.522107,3.40274 -0.420408,1.6696 -0.641691,2.18256 -1.549629,3.59224 -0.424259,0.6587 -0.79605,1.26642 -0.826203,1.35046 -0.03016,0.084 0.03042,0.34275 0.134596,0.57488 0.368284,0.82059 2.196841,7.94408 2.352573,9.1649 l 0.08861,0.69463 h -2.048244 c -1.341105,0 -2.027809,-0.0331 -1.989036,-0.0958 0.03257,-0.0527 0.01355,-0.0958 -0.04225,-0.0958 -0.05581,0 -0.101468,0.049 -0.101468,0.10879 0,0.0599 -0.128656,-0.0372 -0.285906,-0.21557 -0.157247,-0.17841 -0.286593,-0.39498 -0.287435,-0.48126 -8.14e-4,-0.0863 -0.135136,-0.25876 -0.298429,-0.38325 -0.33535,-0.25568 -0.397333,-0.31847 -0.655365,-0.66386 -0.101025,-0.13523 -0.349209,-0.3005 -0.551522,-0.36727 -0.692624,-0.22858 -2.659857,0.41136 -3.229342,1.0505 -0.137816,0.15467 -0.334985,0.28123 -0.438158,0.28123 -0.103167,0 -0.319282,0.12875 -0.480253,0.2861 -0.299132,0.29241 -0.571364,0.39974 -0.911583,0.3594 -0.110889,-0.0132 -0.181532,0.0277 -0.167671,0.097 0.01619,0.081 -0.109546,0.11976 -0.388038,0.11976 -0.226596,0 -0.46912,-0.0539 -0.538944,-0.11976 -0.101564,-0.0958 -0.135734,-0.0958 -0.170865,0 -0.03044,0.083 -0.294697,0.11976 -0.861348,0.11976 h -0.81744 z M 60.019186,168.45731 c 0.33151,-0.46162 0.351664,-0.54885 0.162989,-0.70543 -0.07269,-0.0603 -0.158247,-0.24008 -0.190121,-0.39945 -0.04223,-0.21111 -0.13637,-0.31708 -0.346887,-0.39047 -0.203415,-0.0709 -0.288939,-0.16318 -0.288939,-0.31172 0,-0.20727 -0.160096,-0.44094 -0.302104,-0.44094 -0.03969,0 -0.138274,0.14012 -0.219086,0.31139 -0.192052,0.407 -0.07136,1.58164 0.221478,2.15566 0.189861,0.37215 0.222799,0.39459 0.436434,0.29725 0.12709,-0.0579 0.363897,-0.29024 0.526236,-0.51629 z m 23.922801,-0.30583 c -0.09739,-0.0974 -0.177754,0.0493 -0.09784,0.17854 0.06036,0.0977 0.08293,0.0978 0.115387,2.7e-4 0.02219,-0.0666 0.01429,-0.14708 -0.01754,-0.17892 z m 2.476291,-1.22732 c 0.126258,-0.38532 0.11804,-0.38032 0.38809,-0.2358 0.131582,0.0704 0.255988,0.11001 0.276458,0.088 0.02047,-0.022 0.06796,-0.26834 0.105527,-0.54732 0.06804,-0.50521 0.06736,-0.507 -0.170338,-0.44734 -0.134712,0.0338 -0.266949,0.0141 -0.303627,-0.0452 -0.100229,-0.16217 -0.243364,-0.0216 -0.243364,0.23899 0,0.28263 -0.284154,0.31927 -0.534508,0.069 -0.349896,-0.3499 -0.902458,-0.51274 -1.142201,-0.3366 -0.308638,0.22675 -0.338495,0.37396 -0.177155,0.87352 0.127342,0.39429 0.209879,0.50529 0.40793,0.5486 0.136557,0.0299 0.355211,0.0862 0.485899,0.12513 0.419134,0.12492 0.803921,-0.0153 0.907289,-0.33085 z M 58.58999,165.44329 c -0.05283,-0.0987 -0.09607,-0.28152 -0.09607,-0.40619 0,-0.12466 -0.03676,-0.26762 -0.08168,-0.31768 -0.04492,-0.05 -0.13676,-0.29581 -0.204078,-0.54612 -0.102319,-0.3805 -0.159618,-0.45511 -0.349465,-0.45511 -0.260973,0 -0.281793,0.0548 -0.09269,0.24388 0.07391,0.0739 0.164283,0.35178 0.200829,0.61749 0.04546,0.33057 0.124039,0.51393 0.248863,0.58073 0.100329,0.0537 0.182418,0.17515 0.182418,0.26991 0,0.20598 0.09116,0.31422 0.205246,0.24371 0.04548,-0.0281 0.03947,-0.1319 -0.01336,-0.23062 z m 7.351316,-9.8312 c -0.03184,-0.0319 -0.114477,-0.0352 -0.183641,-0.008 -0.07643,0.0306 -0.05373,0.0533 0.05789,0.0579 0.101003,0.004 0.157592,-0.0185 0.125753,-0.0503 z m -3.346632,-0.72777 c 0.171682,-0.17169 0.139152,-0.25666 -0.07666,-0.20022 -0.105392,0.0276 -0.191623,0.10975 -0.191623,0.18265 0,0.16308 0.115221,0.17062 0.268275,0.0176 z m 4.015538,-4.22596 c -0.04841,-0.13815 -0.711356,-0.13216 -0.851205,0.008 -0.06808,0.0681 0.05556,0.10017 0.396153,0.1028 0.343329,0.003 0.482836,-0.0312 0.455052,-0.11049 z m 13.322193,-5.83753 c 0.09192,-0.0808 0.350363,-0.23904 0.574324,-0.35164 0.223961,-0.1126 0.407199,-0.24697 0.407199,-0.2986 0,-0.14308 -0.670924,-0.10405 -1.101836,0.0641 -0.210786,0.0822 -0.668122,0.20336 -1.016302,0.26913 -0.82313,0.15547 -0.945542,0.23159 -0.6494,0.40378 0.306813,0.17839 1.553252,0.11785 1.786015,-0.0868 z m 2.321426,-0.24675 c 8.14e-4,-0.069 -0.04165,-0.0988 -0.09435,-0.0662 -0.05269,0.0326 -0.09515,0.15368 -0.09434,0.26914 0.0011,0.17066 0.01885,0.18305 0.09434,0.0662 0.05108,-0.079 0.09354,-0.20016 0.09435,-0.26914 z m -7.471869,-15.15093 c 0,-0.0496 -0.04312,-0.11681 -0.09582,-0.14938 -0.05269,-0.0326 -0.09581,0.008 -0.09581,0.0902 0,0.0821 0.04312,0.14937 0.09581,0.14937 0.05269,0 0.09582,-0.0406 0.09582,-0.0902 z m -13.795464,41.88813 c 8.14e-4,-0.0395 0.04326,-0.13652 0.09435,-0.21557 0.07511,-0.11621 0.09315,-0.10246 0.09435,0.0719 8.15e-4,0.11857 -0.04165,0.21558 -0.09435,0.21558 -0.05269,0 -0.09515,-0.0323 -0.09435,-0.0719 z M 50.637335,160.34226 c 0,-0.24424 0.04472,-0.5617 0.09938,-0.70545 0.06861,-0.18048 0.06861,-0.29212 0,-0.36074 -0.123951,-0.12395 -0.130556,-0.51307 -0.0095,-0.55608 0.04947,-0.0176 0.120555,-0.2648 0.15798,-0.54942 0.04991,-0.37955 0.03872,-0.49935 -0.04202,-0.44945 -0.06054,0.0374 -0.110074,0.13975 -0.110074,0.22741 0,0.12665 -0.03021,0.11625 -0.147104,-0.0506 -0.104584,-0.14931 -0.141896,-0.41162 -0.12909,-0.90757 0.0099,-0.38367 -0.03266,-1.04249 -0.0946,-1.46406 -0.133018,-0.90535 0.0096,-2.21459 0.292329,-2.68274 0.229195,-0.37957 0.217098,-0.5381 -0.01939,-0.25426 l -0.187304,0.22479 -0.102844,-0.2705 c -0.05657,-0.14877 -0.09207,-0.44571 -0.07889,-0.65986 0.01318,-0.21414 -0.0092,-0.44288 -0.04959,-0.50832 -0.04044,-0.0654 -0.120275,-0.85764 -0.17741,-1.76046 -0.07808,-1.23372 -0.0761,-1.74537 0.008,-2.05964 0.09499,-0.35516 0.088,-0.45453 -0.04643,-0.65969 -0.137606,-0.21002 -0.143013,-0.30971 -0.04142,-0.76368 0.09051,-0.40445 0.09194,-0.76505 0.0063,-1.60004 -0.08371,-0.81648 -0.08354,-1.24058 8.16e-4,-1.7486 0.06118,-0.36887 0.09743,-0.95093 0.08055,-1.29346 -0.01689,-0.34253 -0.03109,-1.29107 -0.03155,-2.10786 -8.14e-4,-1.47124 0.119507,-2.2168 0.456258,-2.82646 0.05822,-0.10539 0.18226,-0.34253 0.275656,-0.52696 0.0934,-0.18444 0.171529,-0.2727 0.173629,-0.19614 0.0024,0.0881 0.135618,0.015 0.363115,-0.19931 0.528827,-0.49826 1.403859,-0.85011 2.114189,-0.85011 0.915092,0 0.925635,0.30575 0.01425,0.41369 -0.49238,0.0583 -1.125778,0.33662 -1.332194,0.58533 -0.165851,0.19984 0.01926,0.2015 0.322349,0.003 0.316968,-0.20768 1.136874,-0.31919 1.646684,-0.22394 0.676759,0.12643 2.721635,1.21754 2.450936,1.30778 -0.04865,0.0162 -0.320608,-0.0638 -0.604358,-0.17791 -0.923568,-0.37125 -1.701857,-0.47634 -2.418091,-0.32648 -0.68411,0.14313 -0.921741,0.24465 -1.113478,0.47568 -0.172238,0.20753 -0.05195,0.29577 0.228813,0.16785 0.358948,-0.16356 1.397544,-0.25973 1.397544,-0.1294 0,0.0595 -0.08463,0.10818 -0.188077,0.10818 -0.431423,0 -1.536538,0.55331 -1.536538,0.76932 0,0.0379 0.388038,0.0468 0.862308,0.0198 0.579861,-0.0331 0.862307,-0.0156 0.862307,0.0535 0,0.0565 -0.08623,0.13001 -0.191625,0.16347 -0.287191,0.0912 -0.230734,0.23953 0.09114,0.23953 0.420847,0 1.253484,0.2373 1.794418,0.51141 0.656234,0.33254 2.23436,1.39676 2.23436,1.50675 0,0.1367 -0.111955,0.10874 -0.47906,-0.11964 -0.592843,-0.36881 -1.373482,-0.7598 -1.990285,-0.99686 -0.48686,-0.18711 -0.768931,-0.2296 -1.485087,-0.22369 -0.486241,0.004 -1.021356,0.0579 -1.189146,0.11976 -0.427613,0.15766 -1.136055,0.67491 -1.3302,0.97122 -0.18639,0.28446 -0.111446,0.43607 0.130828,0.26466 0.370174,-0.26189 0.88783,-0.50089 1.093426,-0.50483 0.120666,-0.002 0.391276,-0.0654 0.60135,-0.14022 0.244985,-0.0872 0.415062,-0.10291 0.474271,-0.0437 0.09645,0.0965 0.09131,0.0987 -0.32524,0.14032 -0.264338,0.0264 -1.536081,1.30964 -1.35708,1.36931 0.05903,0.0197 0.302602,-0.0388 0.541258,-0.12994 0.59313,-0.22652 1.933271,-0.14322 2.338532,0.14535 0.151453,0.10784 0.308999,0.19608 0.350096,0.19608 0.144184,0 0.901722,0.40116 0.901722,0.47752 0,0.0424 -0.161683,0.0376 -0.359296,-0.0108 -0.879694,-0.21533 -1.495611,-0.29171 -1.883382,-0.23356 -0.552295,0.0828 -1.613662,0.72718 -2.220957,1.34835 -0.557173,0.5699 -0.666074,0.77343 -0.456799,0.85374 0.217346,0.0834 0.225647,0.0763 0.225647,-0.19266 0,-0.16793 0.06213,-0.26475 0.191622,-0.29862 0.105394,-0.0276 0.191625,-0.10463 0.191625,-0.17128 0,-0.28422 1.046261,-0.85787 1.452037,-0.79612 0.198608,0.0302 0.18021,0.0543 -0.158576,0.20745 -0.210785,0.0953 -0.447922,0.2129 -0.526966,0.26133 -0.07905,0.0484 -0.240726,0.13002 -0.359296,0.18128 -0.118566,0.0513 -0.215576,0.1374 -0.215576,0.1914 0,0.15157 0.260082,0.11604 0.321464,-0.0439 0.0317,-0.0826 0.117707,-0.11786 0.205444,-0.0842 0.08301,0.0318 0.22476,-0.006 0.315015,-0.0846 0.376766,-0.3271 1.513396,-0.382 2.314343,-0.11179 0.430902,0.14537 1.251086,0.58165 1.251086,0.66548 0,0.0237 -0.580134,0.0153 -1.289191,-0.0187 -1.106507,-0.0531 -1.354279,-0.0375 -1.748567,0.10999 -0.568113,0.21249 -1.616544,0.94165 -1.763878,1.22675 -0.06015,0.11639 -0.222405,0.30709 -0.360559,0.42376 -0.206769,0.17462 -0.221003,0.21274 -0.08051,0.21558 0.09388,0.002 0.196321,-0.0634 0.227665,-0.14506 0.06402,-0.16682 0.934637,-0.75741 1.517896,-1.02969 0.505962,-0.23618 1.274962,-0.31157 1.710827,-0.16773 0.192022,0.0634 0.349131,0.14945 0.349131,0.19127 0,0.0418 -0.204798,0.10362 -0.455107,0.13734 -0.820982,0.11059 -0.998264,0.15982 -1.447897,0.40205 -0.803402,0.43281 -1.450415,0.94897 -1.450415,1.15708 0,0.18504 0.263795,0.15875 0.565926,-0.0564 0.143091,-0.10189 0.386882,-0.21683 0.541754,-0.25542 0.25636,-0.0639 0.269638,-0.0557 0.148176,0.0918 -0.07338,0.0891 -0.115688,0.17966 -0.09402,0.20133 0.02167,0.0217 0.36196,-0.002 0.756197,-0.0526 0.394235,-0.0506 0.889255,-0.0667 1.100041,-0.0358 0.631918,0.0927 1.971659,0.52954 1.913333,0.62392 -0.03057,0.0494 -0.365074,0.0616 -0.764986,0.0278 -1.0034,-0.0848 -1.75963,0.0918 -2.277536,0.53189 -0.417121,0.35446 -0.578422,0.46855 -1.068439,0.75576 -0.356993,0.20924 -1.011024,0.90497 -1.221523,1.2994 -0.461806,0.86535 -0.568417,1.11701 -0.511923,1.20842 0.122519,0.19824 0.304557,0.093 0.572657,-0.33118 0.15001,-0.23732 0.625023,-0.7697 1.055585,-1.18305 0.728106,-0.69901 0.82972,-0.76305 1.453319,-0.91587 0.722182,-0.17698 2.216872,-0.2653 2.296958,-0.13571 0.02692,0.0436 -0.115275,0.0802 -0.315999,0.0815 -0.609018,0.004 -1.879492,0.40019 -2.207653,0.68877 -0.09314,0.0819 -0.348929,0.23919 -0.568416,0.34951 -0.219489,0.11032 -0.650642,0.48519 -0.958121,0.83305 -0.68185,0.77139 -0.7541,0.89192 -0.616885,1.02914 0.05816,0.0582 0.105739,0.18335 0.105739,0.2782 0,0.0949 0.03421,0.17246 0.07601,0.17246 0.0418,0 0.419068,-0.37079 0.838355,-0.82399 0.710285,-0.76772 0.908066,-0.90755 1.796827,-1.2703 0.645282,-0.26338 0.599222,-0.0535 -0.139256,0.63452 -1.541206,1.43592 -2.158434,2.18406 -2.612038,3.16603 -0.08054,0.17434 -0.233803,0.42808 -0.3406,0.56384 -0.205848,0.26169 -0.260268,0.60426 -0.09599,0.60426 0.05401,0 0.139165,-0.10779 0.189252,-0.23953 0.05009,-0.13174 0.131215,-0.23953 0.180283,-0.23953 0.123287,0 0.02012,0.3525 -0.14273,0.48765 -0.07335,0.0609 -0.133367,0.24719 -0.133367,0.41403 0,0.16685 -0.08623,0.47249 -0.191621,0.67922 -0.216025,0.42371 -0.271643,1.02855 -0.07665,0.83356 0.181576,-0.18158 0.285216,-0.13403 0.1714,0.0786 -0.05699,0.10648 -0.07806,0.23496 -0.04682,0.2855 0.03123,0.0506 -0.009,0.28563 -0.08937,0.5224 -0.142499,0.41972 -0.120816,0.72312 0.05168,0.72312 0.04706,0 0.08556,-0.10061 0.08556,-0.22356 0,-0.12296 0.02646,-0.25002 0.05879,-0.28235 0.03233,-0.0323 0.1558,-0.33643 0.274375,-0.67576 0.118571,-0.33933 0.286136,-0.71771 0.372366,-0.84082 0.08623,-0.1231 0.156781,-0.31674 0.156781,-0.43031 0,-0.11356 0.06468,-0.26015 0.143717,-0.32575 0.07905,-0.0656 0.143718,-0.18064 0.143718,-0.25566 0,-0.075 0.183241,-0.48281 0.407199,-0.90622 0.669681,-1.26606 2.700304,-3.23589 3.01321,-2.92299 0.07138,0.0714 0.06171,0.54066 -0.02124,1.03167 -0.05004,0.29618 -0.132487,0.40695 -0.425395,0.57158 -0.480159,0.26986 -1.397488,1.3837 -1.926193,2.33881 -0.233641,0.42208 -0.498927,0.89635 -0.589526,1.05394 -0.233938,0.40692 -0.30943,0.57359 -0.650517,1.43626 -0.454876,1.15047 -0.60189,1.49264 -0.82644,1.92349 -0.200235,0.3842 -0.314755,0.77484 -0.367192,1.25254 -0.01442,0.1313 -0.07492,0.28746 -0.134457,0.347 -0.08046,0.0804 -0.108252,-0.006 -0.108252,-0.33583 z m 0.272634,-5.96076 c 0.02119,-0.10923 -0.01336,-0.1553 -0.09582,-0.12785 -0.07091,0.0236 -0.143812,0.11978 -0.162017,0.2137 -0.02118,0.10923 0.01336,0.15529 0.09581,0.12784 0.07091,-0.0236 0.143815,-0.11977 0.16202,-0.21369 z m 0.167637,-10.35435 c -0.03339,-0.31322 -0.19195,-0.31412 -0.231058,-0.001 -0.02064,0.16505 0.01554,0.24251 0.11323,0.24251 0.09632,0 0.135082,-0.0794 0.117828,-0.2412 z m 0.469943,-2.44154 c 0.03257,-0.0527 0.01356,-0.0958 -0.04225,-0.0958 -0.05582,0 -0.101472,0.0431 -0.101472,0.0958 0,0.0527 0.01901,0.0958 0.04225,0.0958 0.02325,0 0.0689,-0.0431 0.101472,-0.0958 z m 1.698494,16.63077 c 0.01436,-0.15402 0.08003,-0.29774 0.145886,-0.31937 0.165558,-0.0544 0.150202,0.18866 -0.02613,0.41344 -0.139161,0.17741 -0.144682,0.17308 -0.119764,-0.0941 z m 0.553089,-1.24729 c 0,-0.0759 0.04312,-0.16471 0.09582,-0.19727 0.05269,-0.0325 0.09581,0.0296 0.09581,0.13806 0,0.1085 -0.04312,0.19728 -0.09581,0.19728 -0.05269,0 -0.09582,-0.0621 -0.09582,-0.13807 z m 0.486353,-0.79609 c 0.405463,-0.67903 0.957213,-1.36533 1.097648,-1.36533 0.102818,0 0.140616,0.11611 0.140616,0.43197 0,0.40992 -0.0099,0.42581 -0.194704,0.31138 -0.174028,-0.10777 -0.229647,-0.0798 -0.523843,0.26267 -0.18103,0.21079 -0.355013,0.4587 -0.386629,0.55092 -0.03162,0.0922 -0.122768,0.16768 -0.202559,0.16768 -0.117209,0 -0.103865,-0.069 0.06947,-0.35929 z m -3.073277,-0.59318 c 0,-0.0496 0.04312,-0.11681 0.09582,-0.14937 0.05269,-0.0326 0.09581,0.008 0.09581,0.0901 0,0.0821 -0.04312,0.14937 -0.09581,0.14937 -0.05269,0 -0.09582,-0.0406 -0.09582,-0.0902 z m 0.688649,-2.79019 c 0.02306,-0.0691 0.09851,-0.14462 0.16767,-0.16767 0.07186,-0.024 0.107787,0.012 0.08383,0.0839 -0.02306,0.0691 -0.09851,0.14462 -0.167672,0.16767 -0.07186,0.024 -0.107789,-0.012 -0.08383,-0.0839 z m 29.691321,-1.87033 c 0.0046,-0.11162 0.0273,-0.13432 0.05788,-0.0579 0.02768,0.0692 0.02428,0.1518 -0.0075,0.18364 -0.03184,0.0318 -0.05448,-0.0247 -0.05032,-0.12575 z m -27.313986,-5.69283 c 0.188833,-0.12203 0.57487,-0.12203 0.57487,0 0,0.0527 -0.161682,0.0951 -0.359292,0.0943 -0.267256,-0.001 -0.322483,-0.0252 -0.215578,-0.0943 z m 0.47906,-9.98059 c -0.477564,-0.13482 -0.582048,-0.27129 -0.207709,-0.27129 0.304589,0 0.974206,0.22713 0.974206,0.33045 0,0.0783 -0.38486,0.0486 -0.766497,-0.0592 z m -3.832482,-0.14041 c 0,-0.23169 0.269877,-0.91746 0.497254,-1.26355 0.149626,-0.22775 0.245341,-0.4573 0.212702,-0.51011 -0.03264,-0.0528 0.02791,-0.18984 0.134557,-0.30451 0.106647,-0.11467 0.22384,-0.37064 0.260428,-0.56884 0.03658,-0.19819 0.107885,-0.38591 0.158432,-0.41715 0.05055,-0.0312 0.233814,-0.36491 0.407256,-0.74149 0.484875,-1.05275 1.605389,-1.91792 2.066041,-1.59523 0.121536,0.0851 0.09936,0.1379 -0.143719,0.34185 -0.158088,0.13264 -0.405038,0.26617 -0.54877,0.29672 -0.267576,0.0569 -0.526282,0.2828 -0.431906,0.37717 0.02896,0.029 0.191685,-0.0192 0.361612,-0.10711 0.286398,-0.1481 0.375108,-0.14859 1.214826,-0.007 1.237564,0.20909 3.218255,1.11298 2.97403,1.3572 -0.03323,0.0332 -0.289529,-0.0472 -0.56955,-0.17865 -1.457517,-0.68442 -2.761006,-0.84565 -3.742786,-0.46295 -0.482187,0.18795 -0.277738,0.27866 0.526968,0.23379 0.757296,-0.0422 0.818578,-0.0298 1.461132,0.29714 l 0.670685,0.34122 -0.47906,-0.0518 c -0.263483,-0.0285 -0.737754,-0.083 -1.053934,-0.12114 -0.624647,-0.0753 -1.115337,0.007 -1.748037,0.29429 -0.708679,0.32147 -0.619613,0.48474 0.119234,0.21856 0.210787,-0.0759 0.663499,-0.13945 1.006027,-0.14114 1.118279,-0.006 1.982792,0.32854 3.060088,1.18242 1.025204,0.81259 1.455305,1.30335 1.142247,1.30335 -0.06006,0 -0.162972,0.0735 -0.228689,0.16342 -0.108836,0.14884 -0.169583,0.12539 -0.681248,-0.26292 -0.308967,-0.23448 -0.863566,-0.55449 -1.23244,-0.71113 -0.599243,-0.25448 -0.777845,-0.28503 -1.67671,-0.28687 -1.291563,-0.003 -1.807414,0.17963 -3.19912,1.13036 -0.36778,0.25124 -0.53755,0.31246 -0.53755,0.19384 z m 7.377524,-0.31685 c 0,-0.11305 -0.186866,-0.23398 -0.255498,-0.16534 -0.06864,0.0686 0.0523,0.2555 0.165343,0.2555 0.04959,0 0.09015,-0.0406 0.09015,-0.0902 z m -0.814402,-0.6385 c -0.255337,-0.1968 -0.526966,-0.34343 -0.526966,-0.28447 0,0.10856 0.43073,0.43802 0.568987,0.43521 0.118252,-0.002 0.109447,-0.034 -0.04201,-0.15074 z m -4.215727,-2.43314 c 0.03257,-0.0527 -0.0055,-0.0958 -0.0845,-0.0958 -0.07905,0 -0.170364,0.0431 -0.202931,0.0958 -0.03257,0.0527 0.0055,0.0958 0.0845,0.0958 0.07905,0 0.170362,-0.0431 0.202931,-0.0958 z m 3.35342,0.67068 c -0.03257,-0.0527 -0.01356,-0.0958 0.04225,-0.0958 0.05581,0 0.101472,0.0431 0.101472,0.0958 0,0.0527 -0.01901,0.0958 -0.04225,0.0958 -0.02325,0 -0.0689,-0.0431 -0.101472,-0.0958 z m 3.257609,-1.27431 c -0.862167,-0.75853 -1.472742,-1.17467 -2.310178,-1.57452 l -0.755806,-0.36087 -1.604428,0.0307 c -1.457799,0.0279 -1.598893,0.0163 -1.543877,-0.12711 0.0333,-0.0868 0.166968,-0.19825 0.297038,-0.2477 0.192376,-0.0731 0.225247,-0.1347 0.176223,-0.33002 -0.128193,-0.51077 0.905458,-1.06209 1.525297,-0.81355 0.158093,0.0634 0.416785,0.14802 0.574874,0.18807 0.267734,0.0678 0.825787,0.343 1.868335,0.92123 0.237134,0.13152 0.538942,0.38549 0.670683,0.56437 0.325294,0.4417 0.724561,0.9222 1.279035,1.53927 0.255547,0.2844 0.449568,0.56182 0.431154,0.6165 -0.01841,0.0547 -0.292171,-0.12818 -0.60835,-0.40635 z m 14.713878,-0.33054 c 0.006,-0.23348 0.01611,-0.24166 0.08908,-0.0719 0.112457,0.2617 0.112457,0.33535 0,0.33535 -0.05269,0 -0.09278,-0.11857 -0.08908,-0.26349 z m -15.336656,-1.75422 c 0,-0.0558 0.04312,-0.0748 0.09582,-0.0422 0.05269,0.0326 0.09582,0.0782 0.09582,0.10147 0,0.0232 -0.04312,0.0422 -0.09582,0.0422 -0.05269,0 -0.09582,-0.0457 -0.09582,-0.10147 z m -0.428561,-0.30133 c -0.03719,-0.0898 -0.268568,-0.25894 -0.514169,-0.37587 -0.245599,-0.11693 -0.547928,-0.29024 -0.671843,-0.38513 -0.123912,-0.0949 -0.372291,-0.20011 -0.551956,-0.23382 -0.179664,-0.0337 -0.486214,-0.14263 -0.681222,-0.24205 -0.19501,-0.0994 -0.511226,-0.18076 -0.702702,-0.18076 -0.222375,0 -0.408658,-0.0669 -0.515661,-0.18511 -0.16185,-0.17884 -0.15437,-0.19182 0.220862,-0.38325 0.508344,-0.25934 0.561905,-0.25424 1.284305,0.1223 1.157921,0.60355 2.35343,1.61307 2.247777,1.89809 -0.03601,0.0971 -0.06441,0.0887 -0.115391,-0.0344 z m 2.882781,-1.59181 c -0.200446,-0.31753 -0.617372,-0.68813 -0.774141,-0.68813 -0.118135,0 -0.03759,0.20522 0.140349,0.35757 0.212597,0.18204 0.260841,0.60055 0.06923,0.60055 -0.166452,0 -0.481673,-0.22447 -1.218969,-0.86804 -0.342529,-0.29899 -0.898881,-0.74477 -1.236342,-0.99062 -0.607089,-0.44229 -0.61947,-0.44634 -1.173694,-0.38364 -0.367941,0.0416 -0.560136,0.0288 -0.560136,-0.0374 0,-0.10535 0.692996,-0.73595 0.981388,-0.89302 0.14981,-0.0816 0.155601,-0.066 0.05629,0.15199 -0.136721,0.30007 -0.03815,0.418 0.216483,0.25899 0.165867,-0.10359 0.238367,-0.081 0.541225,0.16865 0.19234,0.15854 0.373666,0.26198 0.402949,0.22988 0.02929,-0.0321 -0.0016,-0.0779 -0.06854,-0.10182 -0.129939,-0.0464 -0.405187,-0.52057 -0.405187,-0.69808 0,-0.0586 0.09701,-0.0931 0.215577,-0.0766 0.161975,0.0225 0.223192,-0.0236 0.246193,-0.1856 0.03743,-0.26352 0.06726,-0.26555 0.372735,-0.0252 0.284174,0.22353 0.455326,0.16724 0.311069,-0.1023 -0.05528,-0.10329 -0.0744,-0.23002 -0.04251,-0.28163 0.118683,-0.19203 0.391836,-0.0745 0.717367,0.30866 0.184439,0.21708 0.426235,0.49143 0.53733,0.60965 0.23338,0.24836 0.346336,0.59216 0.22017,0.67013 -0.116782,0.0722 -0.110563,0.23397 0.009,0.23397 0.05269,0 0.09582,-0.0647 0.09582,-0.14371 0,-0.31655 0.417457,-0.0241 0.512922,0.35929 0.07859,0.31564 0.06808,0.31747 -0.379609,0.066 -0.206527,-0.11599 -0.386906,-0.16213 -0.437208,-0.11183 -0.112092,0.11209 0.0024,0.40511 0.15845,0.40511 0.06682,0 0.146245,0.12378 0.176504,0.27506 0.03026,0.15128 0.208108,0.41946 0.395224,0.59596 0.187118,0.17649 0.340212,0.39764 0.340212,0.49144 0,0.27677 -0.172875,0.19643 -0.420139,-0.19526 z m -0.729605,-1.93032 c 0,-0.0508 -0.08623,-0.13859 -0.191625,-0.19499 -0.148232,-0.0793 -0.191623,-0.0729 -0.191623,0.0286 0,0.0721 0.02874,0.15986 0.06388,0.19499 0.09648,0.0965 0.319372,0.0765 0.319372,-0.0286 z m -0.862308,-0.86568 c 0,-0.0527 -0.04566,-0.0958 -0.101472,-0.0958 -0.05581,0 -0.07482,0.0431 -0.04225,0.0958 0.03257,0.0527 0.07823,0.0958 0.101462,0.0958 0.02325,0 0.04225,-0.0431 0.04225,-0.0958 z m -2.730643,2.47466 c -0.368876,-0.16337 -0.821588,-0.32424 -1.006024,-0.35749 -0.440062,-0.0793 -0.45328,-0.33331 -0.01953,-0.375 0.402884,-0.0387 1.033708,0.26462 1.455693,0.7 0.179317,0.18501 0.306797,0.33484 0.283285,0.33295 -0.02353,-0.002 -0.344557,-0.1371 -0.713431,-0.30046 z"
       id="path2311"
       sodipodi:nodetypes="ccsssssssccssssscsssscscsccssscssssssssssccsssscsssccsssssscssccsscsscsscssscsssccssssssscsscsssccsssscscccssscccsscscsscsccscsssccccsscssccssssscssscsscsscccssscccsccsssssscccsscscsssssscsssscsscsscssssscscssscscscsssccssssssssssssssccscscscscsscssssccscsssssssscssscscscsscsscccccsssscscssssssssscsssssccscscscsccscssssscscssscsssccccscsccccssssssscsscsssssssscsscsssssscssscsssscsssssssccsssssssccsssscsccscssssscsssscccscssccssssssssssccsscssscssscssccssscsssssssssssssssssssssssssssssssscssccsssssssscssssscsssssscsssssccscscsssssscscccssssccscsscssscsccscscsscccccccccscccccccsssssssssscssssssssssssssccsscssssccccscscsscccccsccscscsscsscssscsssssssccssccssscssscsscssssscsssccsscsscssscssssssssccccssscsssscsssssssssscssscssssccsscssssscsssscssscssscscssscsssssssssccssssssssssccssssssssssscccsscsccccsccssssscssscssssssscscsssccssccsscsscscccsscccscccssssssssssssccssscsssssssssssssssssssscssssssscsssssssscssscsscsscssssssssssssccssscsscssscccsssscc" />
  </g>
</svg>
