<?xml version="1.0" encoding="UTF-8" standalone="no"?>
<!-- Created with Inkscape (http://www.inkscape.org/) -->

<svg
   width="196.6981mm"
   height="69.143097mm"
   viewBox="0 0 196.69811 69.143097"
   version="1.1"
   id="svg5"
   inkscape:version="1.1 (c4e8f9ed74, 2021-05-24)"
   sodipodi:docname="logo.svg"
   inkscape:export-filename="/tmp/logo_kappa.png"
   inkscape:export-xdpi="96"
   inkscape:export-ydpi="96"
   xmlns:inkscape="http://www.inkscape.org/namespaces/inkscape"
   xmlns:sodipodi="http://sodipodi.sourceforge.net/DTD/sodipodi-0.dtd"
   xmlns="http://www.w3.org/2000/svg"
   xmlns:svg="http://www.w3.org/2000/svg">
  <sodipodi:namedview
     id="namedview7"
     pagecolor="#505050"
     bordercolor="#eeeeee"
     borderopacity="1"
     inkscape:pageshadow="0"
     inkscape:pageopacity="0"
     inkscape:pagecheckerboard="0"
     inkscape:document-units="mm"
     showgrid="false"
     fit-margin-top="0"
     fit-margin-left="0"
     fit-margin-right="0"
     fit-margin-bottom="0"
     inkscape:zoom="0.7420805"
     inkscape:cx="408.98528"
     inkscape:cy="97.024514"
     inkscape:window-width="1920"
     inkscape:window-height="1011"
     inkscape:window-x="0"
     inkscape:window-y="32"
     inkscape:window-maximized="1"
     inkscape:current-layer="layer1" />
  <defs
     id="defs2" />
  <g
     inkscape:label="Calque 1"
     inkscape:groupmode="layer"
     id="layer1"
     transform="translate(56.830991,4.68966)">
    <path
       d="m -37.210479,59.546251 v 4.907143 h -1.5875 q -6.176369,0 -8.284768,-2.521726 -2.083594,-2.521727 -2.083594,-10.052827 v -8.144495 q 0,-5.145684 -1.339453,-7.122173 -1.314649,-1.976487 -4.787306,-1.976487 h -1.537891 v -4.873067 h 1.537891 q 3.497461,0 4.812111,-1.942409 1.314648,-1.942411 1.314648,-7.054019 V 12.58762 q 0,-7.5311018 2.083594,-10.0187506 2.108399,-2.52172628 8.284768,-2.52172628 h 1.5875 V 4.9202087 h -1.736328 q -3.472658,0 -4.539259,1.4994048 -1.041798,1.4653273 -1.041798,6.3043165 v 8.45119 q 0,5.350149 -1.141015,7.769643 -1.116212,2.419493 -3.844728,3.271428 2.753321,0.92009 3.869533,3.339583 1.11621,2.419495 1.11621,7.735566 v 8.451191 q 0,4.873066 1.041798,6.338393 1.066601,1.465327 4.539259,1.465327 z"
       id="path31128"
       style="font-size:59.5429px;line-height:1.25;font-family:'DejaVu Sans Mono';-inkscape-font-specification:'DejaVu Sans Mono';fill:#558160;fill-opacity:1;stroke-width:0.310119" />
    <path
       d="m 9.6290525,59.546251 h 1.6867195 q 3.497461,0 4.564063,-1.499405 1.066602,-1.499405 1.066602,-6.304315 V 43.29134 q 0,-5.316071 1.116211,-7.735566 1.116211,-2.419493 3.869532,-3.339583 -2.728516,-0.851935 -3.869532,-3.271428 -1.116211,-2.419494 -1.116211,-7.769643 v -8.45119 q 0,-4.8049118 -1.066602,-6.3043165 Q 14.813233,4.9202087 11.315772,4.9202087 H 9.6290525 V 0.04714312 h 1.5378915 q 6.176368,0 8.259962,2.52172628 Q 21.5105,5.0565182 21.5105,12.58762 v 8.178571 q 0,5.111608 1.314649,7.054019 1.339453,1.942409 4.836915,1.942409 h 1.587501 v 4.873067 h -1.587501 q -3.497462,0 -4.836915,1.976487 -1.314649,1.976489 -1.314649,7.122173 v 8.144495 q 0,7.5311 -2.083594,10.052827 -2.083594,2.521726 -8.259962,2.521726 H 9.6290525 Z"
       id="path31130"
       style="font-size:59.5429px;line-height:1.25;font-family:'DejaVu Sans Mono';-inkscape-font-specification:'DejaVu Sans Mono';fill:#558160;fill-opacity:1;stroke-width:0.310119" />
    <path
       d="m 38.514125,44.606766 h 2.928058 V 22.663973 h 8.18445 v -2.540002 h -19.26168 v 2.540002 h 8.149172 z"
       style="font-size:35.2778px;line-height:1.25;font-family:Cantarell;-inkscape-font-specification:Cantarell;fill:#558160;fill-opacity:1;stroke-width:0.0820523"
       id="path73843" />
    <path
       d="m 52.625249,44.606766 h 2.786946 l 4.621392,-13.687787 4.903615,13.687787 h 2.857502 l 5.60917,-17.003901 H 70.58165 L 66.383592,41.396486 61.7622,27.673421 H 58.657753 L 54.106917,41.608152 49.979414,27.602865 h -3.21028 z"
       style="font-size:35.2778px;line-height:1.25;font-family:Cantarell;-inkscape-font-specification:Cantarell;fill:#558160;fill-opacity:1;stroke-width:0.0820523"
       id="path73845" />
    <path
       d="m 86.809406,44.606766 h 1.975557 V 33.564814 c 0,-4.056948 -2.39889,-6.314727 -6.843893,-6.314727 -2.222502,0 -4.621392,0.599723 -6.455838,1.622779 l 0.705556,2.08139 c 1.76389,-0.776111 3.52778,-1.164167 5.185837,-1.164167 3.033891,0 4.586114,1.270001 4.586114,3.774725 v 1.128889 c -7.620005,0.07056 -10.936119,1.658057 -10.936119,5.291671 0,3.03389 2.25778,4.97417 5.750282,4.97417 2.151946,0 3.986392,-0.705557 5.362226,-1.94028 z m -0.846667,-3.810003 c -1.058334,1.058334 -2.610557,1.693334 -4.374447,1.693334 -2.25778,0 -3.739447,-1.128889 -3.739447,-2.822224 0,-2.116668 2.39889,-2.998613 8.113894,-3.033891 z"
       style="font-size:35.2778px;line-height:1.25;font-family:Cantarell;-inkscape-font-specification:Cantarell;fill:#558160;fill-opacity:1;stroke-width:0.0820523"
       id="path73847" />
    <path
       d="m 97.921882,44.959544 c 4.198048,0 6.773318,-1.975557 6.773318,-5.115282 0,-6.244171 -10.159985,-3.915836 -10.159985,-7.761116 0,-1.481668 1.5875,-2.434168 4.127494,-2.434168 1.446381,0 3.139711,0.3175 4.586101,0.811389 l 0.67028,-2.293057 c -1.44639,-0.599723 -3.175,-0.917223 -4.974164,-0.917223 -4.409711,0 -7.231937,1.940279 -7.231937,5.150559 0,6.10306 10.124711,3.563058 10.124711,7.725839 0,1.552223 -1.37583,2.434168 -3.704158,2.434168 -1.799157,0 -4.198047,-0.493889 -5.99722,-1.270001 l -0.670278,2.293057 c 1.940281,0.881945 4.303891,1.375835 6.455838,1.375835 z"
       style="font-size:35.2778px;line-height:1.25;font-family:Cantarell;-inkscape-font-specification:Cantarell;fill:#558160;fill-opacity:1;stroke-width:0.0820523"
       id="path73849" />
    <path
       d="m 114.39655,44.959544 c 5.00945,0 8.39612,-3.633614 8.39612,-9.066395 0,-5.256393 -3.13973,-8.643062 -7.97279,-8.643062 -5.00944,0 -8.36084,3.598336 -8.36084,9.031117 0,5.256393 3.10445,8.67834 7.93751,8.67834 z m 0.38806,-2.469447 c -3.28084,0 -5.50334,-2.645835 -5.50334,-6.561671 0,-3.774724 2.01083,-6.208893 5.15056,-6.208893 3.28083,0 5.53861,2.681113 5.53861,6.561671 0,3.739447 -2.04611,6.208893 -5.18583,6.208893 z"
       style="font-size:35.2778px;line-height:1.25;font-family:Cantarell;-inkscape-font-specification:Cantarell;fill:#558160;fill-opacity:1;stroke-width:0.0820523"
       id="path73851" />
    <path
       d="m 137.04489,44.606766 h 2.82222 V 33.45898 c 0,-3.774725 -2.50472,-6.208893 -6.31472,-6.208893 -1.94028,0 -3.88056,0.670278 -5.50334,1.869724 l -0.635,-1.516946 h -1.97556 v 17.003901 h 2.82223 V 31.307034 c 1.30528,-1.023056 2.8575,-1.587501 4.51556,-1.587501 2.75166,0 4.26861,1.552224 4.26861,4.303892 z"
       style="font-size:35.2778px;line-height:1.25;font-family:Cantarell;-inkscape-font-specification:Cantarell;fill:#558160;fill-opacity:1;stroke-width:0.0820523"
       id="path73853" />
    <path
       style="fill:#886a94;fill-opacity:1;stroke-width:0.0958117"
       d="m -22.426767,64.233652 c -0.03028,-0.120627 -0.0095,-0.339076 0.04613,-0.485437 0.106682,-0.280608 0.09375,-0.302949 -0.779203,-1.346484 -0.217666,-0.260203 -0.260015,-0.40695 -0.273796,-0.94872 -0.02391,-0.939587 -0.01657,-1.135249 0.0552,-1.472962 0.06375,-0.299969 -0.104574,-1.371765 -0.38092,-2.425546 -0.076,-0.289834 -0.190393,-0.800002 -0.254192,-1.133723 -0.133491,-0.698232 -0.272197,-0.878328 -0.67646,-0.878328 -0.223917,0 -0.429236,-0.134668 -0.912995,-0.598824 -0.712509,-0.683642 -0.890704,-0.973117 -0.878729,-1.427491 0.0046,-0.176592 -0.05849,-0.515102 -0.140295,-0.752235 -0.222578,-0.645109 -0.293681,-1.518229 -0.163123,-2.003074 0.0655,-0.243258 0.07676,-0.44412 0.02677,-0.477812 -0.178812,-0.120523 -0.209412,-0.415353 -0.0762,-0.734168 0.142595,-0.341278 0.399735,-0.437798 0.496255,-0.186273 0.102053,0.265934 0.359651,0.1469 0.881232,-0.407197 l 0.518585,-0.55092 -0.06596,0.368948 c -0.05946,0.332599 -0.169431,0.635334 -0.466296,1.283665 -0.178062,0.388865 0.02566,0.355079 0.466272,-0.07735 0.328134,-0.322037 0.452158,-0.393585 0.512632,-0.295746 0.06207,0.100431 0.151579,0.06485 0.403484,-0.160272 0.321466,-0.287333 0.323714,-0.295224 0.323714,-1.135455 v -0.846109 l 0.269276,-0.03084 c 0.148103,-0.01696 0.320564,0.0094 0.383251,0.05868 0.192967,0.151569 0.616309,0.216255 0.849863,0.129862 0.506595,-0.187421 0.659366,0.262224 0.17432,0.513047 -0.200816,0.103844 -0.287435,0.219442 -0.287435,0.383586 0,0.129219 -0.103547,0.462256 -0.23011,0.740089 -0.258595,0.567666 -0.536866,1.481871 -0.535448,1.759105 5.43e-4,0.100757 0.103477,0.403428 0.228803,0.672582 0.125326,0.269155 0.258812,0.678751 0.296631,0.910213 0.03781,0.231461 0.153464,0.560179 0.25699,0.730476 0.174252,0.286656 0.171288,0.504762 -0.0068,0.504762 -0.07079,0 -0.500765,-0.815174 -0.619843,-1.175135 -0.03078,-0.09301 -0.15583,-0.207081 -0.277914,-0.253503 -0.122084,-0.04643 -0.279371,-0.153558 -0.34953,-0.238093 -0.280563,-0.338056 -0.325406,-0.164539 -0.263616,1.020002 0.03368,0.64553 0.102415,1.346159 0.152763,1.556942 0.05034,0.21079 0.181225,0.986866 0.290846,1.724615 0.215702,1.451692 0.386934,2.194435 0.541544,2.349046 0.06704,0.06707 0.223145,0.0078 0.492099,-0.187165 0.513441,-0.371937 0.586997,-0.799094 0.388766,-2.25769 -0.142134,-1.045831 -0.141478,-1.058714 0.08526,-1.676711 0.125671,-0.342528 0.235514,-0.64433 0.244094,-0.670681 0.0086,-0.02639 -0.05795,-0.185895 -0.147822,-0.354538 -0.198676,-0.372794 -0.207421,-0.566194 -0.0287,-0.634779 0.208356,-0.07992 0.415018,0.226596 0.473177,0.701881 0.111712,0.91292 0.351407,2.187402 0.549596,2.922264 0.441592,1.637365 0.573279,2.052452 0.670132,2.112306 0.171158,0.105782 0.323945,0.552616 0.326097,0.95368 0.0016,0.301562 0.03818,0.383442 0.17154,0.384161 0.155452,8.14e-4 0.453292,0.421642 0.453292,0.640425 0,0.271381 0.538658,1.399134 0.752263,1.574956 0.220597,0.181586 0.232895,0.222604 0.110843,0.369667 -0.120842,0.145607 -0.11544,0.181389 0.04509,0.29877 0.100298,0.07333 0.213449,0.133347 0.251442,0.133347 0.03799,0 0.09775,0.16968 0.132782,0.377061 0.04212,0.249263 0.143424,0.429299 0.298911,0.531173 0.129364,0.08481 0.20973,0.195336 0.178594,0.245717 -0.0336,0.05439 -1.046492,0.0916 -2.492342,0.0916 h -2.435725 z m -0.427667,-4.954533 c 0,-0.05268 -0.01901,-0.09581 -0.04225,-0.09581 -0.02325,0 -0.0689,0.04309 -0.101472,0.09581 -0.03257,0.05268 -0.01356,0.09581 0.04225,0.09581 0.0558,0 0.101472,-0.04309 0.101472,-0.09581 z m 12.300825,4.93769 c 0.169303,-0.258395 0.198564,-0.600245 0.0689,-0.80492 -0.05059,-0.07984 -0.03156,-0.229259 0.04878,-0.383244 0.07243,-0.138814 0.132288,-0.338622 0.133024,-0.444008 0.0013,-0.182777 0.3672413,-0.431159 0.6352678,-0.431159 0.064991,0 0.1484313,-0.09537 0.1854271,-0.211938 0.037002,-0.116566 0.1692459,-0.292156 0.2938908,-0.390201 0.1246449,-0.09804 0.2262374,-0.250582 0.2257638,-0.338981 -5.431e-4,-0.0884 0.1396488,-0.276617 0.3113877,-0.418274 0.250332,-0.206482 0.2885027,-0.281534 0.1924886,-0.378457 -0.1634362,-0.164984 -0.15078,-0.512438 0.023957,-0.657445 0.185128,-0.153643 0.1849677,-0.442732 -2.715e-4,-0.513818 -0.079199,-0.03041 -0.536288,-0.123325 -1.0157512,-0.206507 -2.2784421,-0.395324 -4.5042951,-1.354588 -6.3248241,-2.725797 -0.547133,-0.412089 -1.674261,-1.40478 -2.50473,-2.205973 -1.339649,-1.292439 -1.546025,-1.534009 -1.829861,-2.141999 -0.470271,-1.007324 -0.574362,-1.400387 -0.454231,-1.715253 0.150017,-0.393182 0.40198,-0.325326 0.818092,0.220317 0.202921,0.266087 0.481252,0.542241 0.618512,0.613679 0.137262,0.07144 0.3545,0.242195 0.482749,0.379475 0.208261,0.222912 0.281591,0.243173 0.686051,0.189519 0.441986,-0.0586 1.17654,0.126924 1.508875,0.381164 0.188768,0.144408 1.429178,0.155604 1.546732,0.01396 0.118061,-0.142258 1.498783,-0.184603 1.582874,-0.04858 0.03222,0.05217 0.251605,0.09482 0.487503,0.09482 0.414521,0 0.43486,0.01388 0.606572,0.414487 0.140816,0.328514 0.170931,0.597848 0.145176,1.298487 -0.01787,0.486198 -0.05604,0.95816 -0.0848,1.048803 -0.08709,0.274389 0.719694,1.038762 1.178152,1.116213 0.209197,0.03538 0.455553,0.147356 0.547457,0.248912 0.09191,0.101554 0.219834,0.184637 0.284285,0.184637 0.06445,0 0.1770638,0.09019 0.250252,0.200416 0.08219,0.123779 0.2606783,0.213035 0.4667923,0.233424 0.1835479,0.01816 0.5493004,0.07633 0.8127827,0.12921 0.8058446,0.161849 1.4974152,0.129939 1.8204292,-0.08396 0.1580886,-0.104701 0.3620496,-0.190642 0.4532456,-0.190993 0.2284341,-8.14e-4 1.2413673,-0.660641 1.1761881,-0.766104 -0.030095,-0.04866 -0.1816853,-0.04043 -0.3527394,0.01919 -0.2554936,0.08907 -0.3191059,0.07838 -0.4290362,-0.07196 -0.1505302,-0.205865 -0.1727246,-0.618947 -0.033248,-0.618947 0.052694,0 0.095809,-0.06888 0.095809,-0.15312 0,-0.132586 -0.080347,-0.142283 -0.5988242,-0.0723 -4.7384551,-0.171746 -0.3618505,-3.559127 -0.2155864,-3.60701 0,-0.302976 -1.0737544,-0.448292 -3.12046,-0.422309 -2.0220887,0.0257 -2.1900097,-0.0096 -2.0561447,-0.431321 0.06343,-0.199826 0.972121,-0.775177 1.224292,-0.775177 0.07935,0 0.193985,-0.05988 0.254744,-0.133108 0.154207,-0.185802 0.5756602,-0.249683 0.8431744,-0.127797 0.1641452,0.07479 0.2550709,0.07212 0.3371386,-0.0099 0.1829886,-0.182992 0.4572978,-0.135456 0.4572978,0.07924 0,0.158003 0.063878,0.191618 0.3640867,0.191618 0.2002452,0 0.4125821,0.04848 0.4718545,0.107777 0.1239448,0.123942 0.9844879,0.02844 0.9844879,-0.109302 0,-0.04712 -0.1616822,-0.112745 -0.3592962,-0.145915 -0.1976115,-0.03315 -0.5010893,-0.1037 -0.6743935,-0.156718 -0.2635455,-0.08061 -0.3047049,-0.130256 -0.2515814,-0.303319 0.084732,-0.276033 0.1073219,-0.290682 0.5296957,-0.343307 0.032357,-0.0043 0.1783442,-0.179796 0.3244207,-0.390578 0.299,-0.431458 0.3866297,-0.468055 0.458914,-0.191627 0.060737,0.232267 0.6429234,0.282304 0.6429234,0.05525 0,-0.201795 -0.4555568,-0.706789 -0.6988446,-0.774689 -4.282686,-1.03288 -1.8781231,-0.476145 -1.4109269,-1.660845 0.3984325,-0.1389 0.8672846,-0.141675 1.2172732,-0.0068 0.1483465,0.05697 0.5499705,0.121252 0.8924983,0.142806 0.342527,0.02151 0.8248306,0.09015 1.071785,0.152451 0.4067809,0.102628 0.4923821,0.09229 0.910214,-0.109944 0.2536656,-0.122768 0.5237156,-0.252116 0.6001179,-0.287436 0.3349069,-0.154842 0.5000681,-0.548349 0.5527511,-1.316981 0.048873,-0.713112 0.031122,-0.816974 -0.2440126,-1.427457 -0.3163243,-0.70188 -0.5383164,-1.442508 -0.6424754,-2.143472 -0.2098984,-2.749025 -3.4337213,-5.44071 -4.8258487,-2.183606 -0.028818,0.127865 2.0341357,0.439818 1.7565728,0.726389 -0.4906466,0.506562 -0.510796,0.516739 -0.7255094,0.366343 -0.2994879,-0.20977 -0.3698345,-0.195173 -0.3698345,0.07667 0,0.308716 -0.6846773,0.905415 -1.533994,1.33689 -0.8243218,0.41878 -1.2798588,0.48428 -1.3217958,0.19006 -0.03343,-0.234495 -0.261074,-0.31795 -0.872458,-0.319844 -0.630939,-0.0017 -0.144862,-1.052146 -0.849002,-1.514966 -0.53081,-0.348893 -1.974657,0.363921 -2.383729,0.363921 -0.572717,0 -1.087231,-0.159536 -1.087231,-0.337106 0,-0.06974 -0.12637,-0.15449 -0.280816,-0.188415 -0.36201,-0.0795 -0.559265,-0.301536 -0.404971,-0.45583 0.061,-0.06099 0.110914,-0.221258 0.110914,-0.35614 0,-0.138291 0.08045,-0.295462 0.184482,-0.360432 0.101462,-0.06339 0.198475,-0.206352 0.215577,-0.317753 0.02295,-0.14953 0.169018,-0.249974 0.558061,-0.383768 0.289831,-0.09967 0.647051,-0.182631 0.793822,-0.184353 0.146769,-0.0017 0.362346,-0.06562 0.479058,-0.141975 0.116713,-0.07633 0.461583,-0.203731 0.766378,-0.283041 0.304793,-0.07933 0.666311,-0.232404 0.803371,-0.340215 0.13706,-0.107811 0.329616,-0.196022 0.427903,-0.196022 0.09829,0 0.178703,-0.04394 0.178703,-0.09763 0,-0.05714 0.102611,-0.07187 0.247234,-0.03555 0.17267,0.04335 0.327661,0.0026 0.5139,-0.135104 0.146664,-0.108428 0.434227,-0.225345 0.639024,-0.259817 0.562668,-0.09468 1.294772,-0.336257 1.6292271,-0.537582 0.1696423,-0.102114 0.4801828,-0.18043 0.7185915,-0.181226 2.6163067,-0.987379 1.9271961,2.403634 4.1287197,0.634085 0.1206994,-0.126264 0.3703583,-0.252407 0.5547944,-0.280308 0.662744,-0.100268 1.3018981,-0.30839 1.5972093,-0.520097 0.165389,-0.118562 0.3628214,-0.215571 0.438737,-0.215571 0.075918,0 0.2160683,-0.08623 0.3114491,-0.191627 0.095381,-0.105395 0.2298896,-0.191627 0.2989153,-0.191627 0.1510732,0 0.3238612,-0.298555 0.3238612,-0.559598 0,-0.1414 -0.04793,-0.176421 -0.1904575,-0.139147 -0.2315225,0.06057 -0.3612297,-0.200133 -0.1976544,-0.397234 0.061808,-0.07444 0.098973,-0.320829 0.082582,-0.54745 -0.023764,-0.328316 -0.078488,-0.436041 -0.2693389,-0.530137 -0.174778,-0.08617 -0.2524816,-0.216282 -0.2874351,-0.481308 -0.046157,-0.349954 -0.063633,-0.365041 -0.4790602,-0.413595 -0.4988841,-0.05834 -0.6706861,-0.145016 -0.6706861,-0.338511 0,-0.133777 0.2279322,-0.188492 0.6227799,-0.149504 0.1095954,0.01079 0.2810718,-0.09259 0.4005803,-0.241571 0.1773259,-0.221062 0.2317153,-0.241604 0.3592963,-0.13573 0.1308587,0.108608 0.1503374,0.08774 0.1503374,-0.161027 0,-0.157188 0.1077869,-0.444633 0.2395287,-0.638761 0.31276402,-0.460885 0.31417928,-0.866008 0.00377,-1.069415 -0.1296859,-0.08498 -0.2615116,-0.235528 -0.292946,-0.334567 -0.062964,-0.198366 -0.5758228,-0.376278 -1.0871405,-0.377123 -0.2489778,-2.72e-4 -0.3962982,-0.08119 -0.6467313,-0.354603 -0.1783683,-0.194734 -0.3243094,-0.409204 -0.3243094,-0.476597 0,-0.149832 -0.5443704,-0.445051 -0.6734985,-0.365246 -0.051151,0.03161 -0.093725,0.173498 -0.094613,0.315303 l -0.00162,0.257828 -0.2048957,-0.320034 c -0.196891,-0.307539 -0.2220871,-0.317479 -0.6451147,-0.254518 -0.2421254,0.03604 -0.483341,0.100482 -0.5360386,0.143227 -0.1372219,0.111291 -0.6328414,0.14331 -0.8908115,0.05755 -0.1642727,-0.05461 -0.3024352,-0.0104 -0.5445247,0.174252 -0.1784179,0.136084 -0.3811701,0.249974 -0.4505563,0.253084 -0.1211116,0.0054 -0.4890098,0.186717 -1.2869936,0.634186 -0.2046855,0.114779 -0.4895921,0.35897 -0.6331234,0.542648 -0.2974872,0.380694 -0.7975098,0.664618 -1.0367478,0.588683 -0.281816,-0.08945 -0.650963,0.12437 -0.902409,0.522693 -0.454935,0.720658 -0.245706,2.341815 0.341422,2.645434 0.31717,0.164016 0.326892,0.361665 0.02002,0.407154 -0.275189,0.04078 -0.70368,-0.352646 -1.179589,-1.083104 -0.308335,-0.473246 -0.449862,-0.614201 -0.576378,-0.57405 -0.121647,0.03864 -0.184401,-0.01336 -0.228546,-0.189236 -0.04686,-0.186684 -0.122142,-0.242453 -0.327303,-0.242453 -0.146546,0 -0.320874,0.05389 -0.38739,0.119762 -0.09687,0.09593 -0.139772,0.08639 -0.21555,-0.04788 -0.112236,-0.198918 -0.812285,-0.237639 -0.875361,-0.0484 -0.07572,0.227152 0.14665,0.863875 0.31728,0.908491 0.09232,0.02416 0.189353,0.126143 0.21564,0.226664 0.0594,0.22711 0.418064,0.241664 0.721295,0.0293 0.298986,-0.20942 0.382908,-0.0881 0.127281,0.183994 -0.251766,0.267999 -0.262342,0.408183 -0.0403,0.534189 0.159498,0.09051 0.159411,0.103502 -0.0018,0.266628 -0.162801,0.164728 -0.207218,0.161541 -1.126381,-0.08078 l -0.956897,-0.252253 -0.06222,0.253864 c -0.03422,0.139627 -0.157108,0.343075 -0.273086,0.452111 -0.115979,0.109037 -0.229236,0.253349 -0.251683,0.320701 -0.03229,0.09688 -0.125653,0.09959 -0.447126,0.01302 -0.454595,-0.122409 -0.593513,-0.07856 -0.593513,0.187387 0,0.0996 -0.150905,0.29619 -0.335341,0.436871 -0.18444,0.140673 -0.335344,0.334518 -0.335344,0.430765 0,0.0992 -0.238625,0.361631 -0.550919,0.605899 -0.797975,0.624156 -0.932099,0.773267 -1.624184,1.805656 -0.392985,0.586215 -0.603469,0.989128 -0.566735,1.084852 0.03214,0.08378 -0.02597,0.353939 -0.129143,0.600418 -0.144621,0.345509 -0.197019,0.743317 -0.228806,1.737096 -0.03805,1.189717 -0.0576,1.302213 -0.253859,1.461132 -0.269088,0.217893 -0.363858,0.215331 -0.718363,-0.01944 -0.375853,-0.248911 -0.543109,-0.240868 -0.805814,0.03873 -0.119042,0.126717 -0.364019,0.258077 -0.544392,0.291916 -0.414068,0.0777 -0.659338,0.424407 -0.580182,0.820186 0.07127,0.356337 -0.102326,0.381746 -0.405241,0.05928 -0.527877,-0.561903 -0.381133,-1.48128 0.341168,-2.137502 l 0.440683,-0.40036 -0.310899,-0.189074 c -0.170992,-0.103983 -0.506198,-0.218347 -0.744898,-0.254147 -0.530302,-0.0795 -0.688444,0.04609 -0.763619,0.606569 -0.02913,0.217249 -0.113328,0.445088 -0.187085,0.506305 -0.221655,0.183951 -0.572778,-0.228807 -0.647376,-0.761025 -0.03463,-0.247096 -0.124545,-0.557062 -0.199798,-0.688799 -0.125495,-0.219701 -0.137022,-0.160188 -0.139187,0.718585 -0.0024,1.011324 0.124781,1.604075 0.463819,2.16022 0.239874,0.393482 0.249912,0.474608 0.05871,0.474608 -0.07905,0 -0.143717,0.03349 -0.143717,0.07444 0,0.109208 0.674688,0.979225 1.0325,1.331417 0.206277,0.203037 0.3079,0.393988 0.305955,0.574871 -0.0024,0.230289 -0.01755,0.245743 -0.100574,0.103186 -0.290273,-0.498372 -0.611418,0.03838 -0.858453,1.434823 -0.175165,0.99014 -0.388349,1.50842 -0.592476,1.440375 -0.05776,-0.01927 -0.173583,-0.162225 -0.257377,-0.317718 -0.08379,-0.155493 -0.249363,-0.41854 -0.36793,-0.584561 -0.118567,-0.166013 -0.215578,-0.325394 -0.215578,-0.354178 0,-0.02879 -0.250943,-0.604196 -0.557651,-1.278672 -0.728301,-1.601598 -1.494647,-3.71352 -1.696606,-4.675561 -0.0885,-0.421581 -0.23885,-1.089863 -0.334111,-1.485092 -0.151169,-0.627189 -0.262103,-1.36528 -0.442811,-2.946217 -0.02815,-0.246264 -0.09575,-0.407196 -0.171044,-0.407196 -0.130427,0 -0.72627,1.033545 -0.725794,1.258959 5.43e-4,0.211981 -0.500346,1.327964 -0.595919,1.327964 -0.05092,0 -0.06222,-0.312014 -0.02689,-0.742547 0.06271,-0.764176 0.07326,-0.789988 0.994351,-2.4343 0.240621,-0.429548 0.302074,-0.648228 0.296183,-1.053926 -0.01915,-1.317581 -0.0047,-1.422136 0.19639,-1.422136 0.219022,0 0.219982,0.0035 0.09611,0.329103 -0.07207,0.189597 -0.06348,0.245768 0.03766,0.245768 0.161321,0 0.261181,0.235874 0.18448,0.435749 -0.03265,0.08515 0.01694,0.202344 0.116394,0.275058 0.13102,0.0958 0.175479,0.264177 0.182204,0.690033 l 0.0089,0.563307 0.642472,0.05543 c 0.438918,0.03787 0.707677,0.113764 0.84827,0.239531 0.252982,0.226314 0.691244,0.903377 0.626598,0.968029 -0.09366,0.09365 -0.7905,0.217575 -1.23611,0.219811 -0.407806,0.0026 -0.454971,0.02467 -0.4538,0.217866 8.14e-4,0.118563 0.02694,0.311209 0.05828,0.4281 0.05467,0.203945 0.07056,0.20685 0.393638,0.07187 0.513282,-0.214457 0.810851,-0.171632 1.319332,0.189888 0.645982,0.459274 0.734396,0.359772 0.354195,-0.398631 -0.160566,-0.320289 -0.09913,-0.529545 0.09768,-0.332736 0.06236,0.06237 0.171497,0.113379 0.242536,0.113379 0.07103,0 0.374998,0.158071 0.675473,0.351266 0.632321,0.406572 1.029264,0.518537 2.04942,0.578076 0.598927,0.03495 0.819621,0.006 1.180753,-0.153472 0.528018,-0.233568 0.486461,-0.392625 -0.102586,-0.392625 -0.234024,0 -0.425497,-0.0418 -0.425497,-0.09287 0,-0.111915 1.007214,-0.769437 1.178652,-0.769437 0.200188,0 0.983898,-0.835649 1.169294,-1.246787 0.184154,-0.40838 0.144002,-0.581503 -0.08986,-0.387417 -0.177318,0.147158 -0.341855,0.05363 -0.341855,-0.194342 0,-0.180619 -0.01256,-0.181938 -0.302606,-0.03195 -0.166432,0.08607 -0.568957,0.365802 -0.8945,0.621636 -0.706752,0.555418 -0.965149,0.663982 -1.580326,0.663982 -0.356719,0 -0.531983,-0.05594 -0.750138,-0.239532 -0.156564,-0.131737 -0.358861,-0.239522 -0.449546,-0.239522 -0.14436,0 -0.156516,0.06691 -0.09769,0.53771 0.08378,0.670544 -0.06674,0.624687 -0.291659,-0.08887 -0.17473,-0.554304 -0.370627,-0.841251 -0.69158,-1.013021 -0.217708,-0.116514 -0.285786,-0.432597 -0.115799,-0.537659 0.191566,-0.118399 0.103203,-0.527711 -0.137608,-0.637425 -0.32152,-0.146498 -0.526277,-0.04335 -0.594899,0.299815 -0.07035,0.351755 -0.337498,0.388026 -0.556364,0.07556 -0.120343,-0.171812 -0.18297,-0.193563 -0.316822,-0.110022 -0.222513,0.138891 -0.592455,0.104102 -0.699988,-0.06579 -0.04767,-0.0753 -0.08734,-0.320092 -0.08815,-0.543895 -0.0011,-0.335623 0.06053,-0.475559 0.352349,-0.798564 0.340029,-0.376374 0.370493,-0.38913 0.781766,-0.327459 0.248248,0.03727 0.68662,0.227547 1.043959,0.453226 0.720536,0.455059 1.294936,0.590849 1.913212,0.452292 0.239712,-0.05371 0.461853,-0.07171 0.493648,-0.03984 0.0318,0.03178 -0.03883,0.234237 -0.15694,0.449867 -0.118113,0.21563 -0.194919,0.411891 -0.17068,0.436127 0.02422,0.02424 0.423286,-0.345269 0.88677,-0.82112 0.463485,-0.475858 1.014523,-0.955358 1.224527,-1.065559 0.421474,-0.221165 1.358036,-0.275862 1.689168,-0.09864 0.104533,0.05594 0.306498,0.08827 0.448807,0.07187 0.240732,-0.02775 0.218725,-0.05603 -0.316126,-0.405793 -0.749863,-0.490379 -1.205749,-0.506484 -2.084961,-0.07368 -0.72189,0.355387 -0.837307,0.372237 -0.837307,0.122221 0,-0.101003 -0.05055,-0.200485 -0.11232,-0.221079 -0.180012,-0.05997 0.306811,-0.645307 0.707329,-0.850417 0.428266,-0.219315 0.82656,-0.231171 1.288103,-0.03829 0.189184,0.07907 0.419652,0.143713 0.51216,0.143713 0.0925,0 0.221864,0.06467 0.287464,0.143723 0.0656,0.07907 0.201745,0.143713 0.302538,0.143713 0.155467,0 0.167212,-0.02998 0.07743,-0.197751 -0.13414,-0.250643 0.02788,-0.47293 0.344697,-0.47293 0.122179,0 0.250042,-0.04515 0.284141,-0.100318 0.03827,-0.06194 0.269622,-0.0789 0.604479,-0.04446 1.540349,0.158705 1.590609,0.158252 1.931646,-0.01765 0.339581,-0.175179 0.634844,-0.621337 0.526837,-0.796096 -0.03243,-0.05252 -0.161313,-0.09543 -0.286393,-0.09543 -0.143273,0 -0.249922,-0.07093 -0.288239,-0.191627 -0.08107,-0.255414 -0.173688,-0.243351 -0.77548,0.100961 -0.493487,0.282339 -0.66782,0.290306 -0.974347,0.04446 -0.01385,-0.01114 0.04323,-0.184003 0.126863,-0.384187 0.206302,-0.493747 0.09792,-0.550755 -0.935784,-0.492196 l -0.834134,0.04729 -0.291659,-0.332177 c -0.364235,-0.414844 -0.376068,-0.68141 -0.03598,-0.810714 0.140623,-0.05347 0.302305,-0.156236 0.359296,-0.228383 0.057,-0.07215 0.330176,-0.247537 0.607078,-0.389754 0.592418,-0.304271 0.677291,-0.292164 1.80833,0.257967 0.700248,0.340594 0.864804,0.384666 1.285409,0.34425 0.712331,-0.06845 1.098884,-0.422249 1.624556,-1.486921 0.284234,-0.575668 0.486763,-0.875467 0.594344,-0.879776 0.09725,-0.004 0.237511,-0.174565 0.347123,-0.422361 0.157752,-0.356622 0.67904,-0.829737 0.914222,-0.829737 0.120534,0 0.05577,0.250031 -0.178976,0.69101 -0.392504,0.737311 -0.298046,0.969838 0.187918,0.462599 0.427088,-0.445784 1.176059,-0.746321 2.255286,-0.904975 0.353364,-0.05194 1.257751,-0.414206 1.532994,-0.614052 0.4937899,-0.358525 0.7732749,-1.285425 0.4491048,-1.489433 -0.1422966,-0.08955 -0.2056571,-0.07035 -0.3507006,0.106283 -0.1100882,0.13406 -0.2829762,0.215577 -0.4572202,0.215577 -0.19258,0 -0.362989,0.09292 -0.54498,0.297177 -0.176192,0.197744 -0.296783,0.26518 -0.360418,0.201548 -0.05445,-0.05445 -0.339198,-0.07354 -0.661265,-0.04434 -0.470634,0.04268 -0.565633,0.02618 -0.565633,-0.09828 0,-0.434879 2.098872,-1.607149 3.7366682,-2.087012 1.2161939,-0.356336 1.8491577,-0.485389 2.3245651,-0.473949 0.3311232,0.008 0.4718736,-0.02977 0.5132641,-0.137641 0.031372,-0.08174 0.1386483,-0.148623 0.2384049,-0.148623 0.099756,0 0.1813726,-0.03235 0.1813726,-0.07187 0,-0.03953 0.2694718,-0.155218 0.5988277,-0.25708 0.7460604,-0.230738 0.8788996,-0.321142 0.7319922,-0.498156 -0.059803,-0.07205 -0.1523967,-0.131006 -0.2057728,-0.131006 -0.053379,0 -0.1966742,-0.09701 -0.3184403,-0.215577 -0.1217916,-0.118612 -0.3222703,-0.312631 -0.4455363,-0.431199 -0.1232617,-0.118567 -0.2913698,-0.215577 -0.3735673,-0.215577 -0.189744,0 -0.5040388,-0.340951 -0.4278816,-0.464174 0.031611,-0.05115 0.021537,-0.190147 -0.022376,-0.308881 -0.1000634,-0.270496 0.2064436,-0.95156 0.4282397,-0.95156 0.1074725,0 0.1372227,-0.05902 0.1005115,-0.199412 -0.041428,-0.158415 0.015368,-0.227618 0.2762616,-0.336626 0.3678346,-0.153692 0.4251461,-0.318913 0.1367825,-0.394321 -0.2427088,-0.06347 -0.2428501,-0.160785 -5.432e-4,-0.327465 0.2653872,-0.182499 0.1610577,-0.562605 -0.1544142,-0.562605 -0.1484391,0 -0.2331005,-0.05868 -0.2419189,-0.167671 -0.014504,-0.179351 -0.039304,-0.448743 -0.06586,-0.715583 -0.00945,-0.09486 -0.070803,-0.143783 -0.1447537,-0.115405 -0.1611769,0.06185 -0.3362786,-0.142899 -0.3814556,-0.44604 -0.085469,-0.573536 -2.0289165,-0.402037 -4.2807772,0.377756 -0.237136,0.08212 -0.538944,0.204604 -0.670686,0.27219 -0.131741,0.06759 -0.32576,0.122196 -0.431153,0.121348 -0.175795,-0.0013 -0.171837,-0.01722 0.0479,-0.191374 0.480943,-0.381157 2.7370287,-1.434707 3.0724702,-1.434787 0.1808736,-4.4e-5 0.652223,-0.07042 1.047445,-0.156396 0.3952255,-0.08598 0.8694944,-0.183679 1.0539338,-0.217122 0.1971926,-0.03576 0.3353413,-0.116837 0.3353413,-0.196811 0,-0.304626 -0.9459454,-0.346114 -3.2576074,-0.142876 -0.7255904,0.0638 -1.6957359,-0.126988 -1.9527629,-0.384013 -0.217913,-0.217915 -0.1693,-1.9498395 0.05945,-2.1179303 0.16104,-0.118336 0.161018,-0.1370439 -5.43e-4,-0.4119211 -0.09668,-0.1645537 -0.130506,-0.3118653 -0.07891,-0.3437494 0.08281,-0.051186 0.04785,-0.9797888 -0.04841,-1.285601 -0.03289,-0.1044923 -0.06956,-0.1069321 -0.183679,-0.012224 -0.07842,0.06508 -0.142584,0.101472 -0.142584,0.08086 0,-0.2068188 -0.603418,-2.3385426 -0.755423,-2.6687251 -0.10917,-0.2371344 -0.199436,-0.5327764 -0.200593,-0.6569821 -0.0016,-0.1595046 -0.04373,-0.2098575 -0.143812,-0.1714498 -0.07794,0.029906 -0.264122,0.00214 -0.413744,-0.061611 -0.3442,-0.1467515 -1.122246,-1.0178409 -1.205538,-1.3496991 -0.03472,-0.138255 -0.122921,-0.2513729 -0.196028,-0.2513729 -0.08664,0 -0.115117,0.068088 -0.08178,0.1955417 0.049,0.1873667 0.02371,0.1927319 -0.604897,0.1283298 -0.495963,-0.050809 -0.695424,-0.1158559 -0.817464,-0.2665686 -0.156544,-0.1933247 -0.16726,-0.194078 -0.35422,-0.024877 -0.155633,0.1408455 -0.231646,0.1536818 -0.394369,0.066597 -0.261164,-0.1397713 -0.418696,-0.037804 -0.35202,0.2278465 0.03982,0.1586556 -0.01217,0.2484895 -0.212146,0.3666233 -0.33827,0.1998208 -0.454704,0.1226552 -0.738193,-0.4892288 -0.126109,-0.2721925 -0.296161,-0.5205568 -0.377895,-0.5519202 -0.221226,-0.084895 -0.433598,0.1415984 -0.433598,0.4624264 0,0.2610987 -0.02374,0.2805201 -0.307704,0.2517517 l -0.307705,-0.031175 0.0066,0.455107 c 0.0067,0.4694947 -0.09537,0.6078885 -0.187803,0.2544211 -0.04367,-0.1669695 -0.100522,-0.1901337 -0.338459,-0.1378747 -0.173816,0.038173 -0.364299,0.013904 -0.48566,-0.061894 -0.151885,-0.094853 -0.24141,-0.098642 -0.374021,-0.015822 -0.09589,0.059881 -0.296582,0.085512 -0.445991,0.056951 -0.24536,-0.046902 -0.266085,-0.030652 -0.214154,0.1679469 0.03163,0.1209308 0.03247,0.3450448 0.0018,0.4980293 -0.04306,0.2153246 -0.10139,0.2716227 -0.258235,0.2492373 -0.111435,-0.015908 -0.202609,-0.085272 -0.202609,-0.1541555 0,-0.068885 -0.08962,-0.1982274 -0.199157,-0.287436 -0.109535,-0.08921 -0.359468,-0.3631228 -0.555407,-0.608698 -0.211514,-0.2650967 -0.510134,-0.508071 -0.735012,-0.5980489 -0.265081,-0.1060642 -0.378759,-0.2092946 -0.378759,-0.3439494 0,-0.1235098 -0.06363,-0.1924008 -0.177725,-0.1924008 -0.148009,0 -0.757737,-0.5838484 -1.230156,-1.17794508 -0.06293,-0.0791382 -0.160952,-0.15940018 -0.217823,-0.17835741 -0.131394,-0.04380007 -0.01838,-0.65574852 0.121098,-0.65574852 0.05513,0 0.179091,0.0713499 0.275457,0.15856726 0.165922,0.15015838 0.175235,0.1438063 0.175585,-0.11976475 2.72e-4,-0.21528481 0.100942,-0.35972091 0.44437,-0.6376273 0.244198,-0.1976106 0.50126,-0.3592963 0.57125,-0.3592963 0.118111,0 0.630327,-0.1985783 1.018716,-0.3949457 0.09151,-0.04626 0.225816,-0.084119 0.298467,-0.084119 0.07266,0 0.241723,-0.086232 0.375708,-0.191624 0.133985,-0.1053957 0.323649,-0.191625 0.421475,-0.191625 0.09783,0 0.398969,-0.080822 0.66921,-0.1795915 0.270241,-0.098777 0.722343,-0.2327313 1.004675,-0.297674 0.282329,-0.06494 0.737011,-0.2212613 1.010405,-0.347373 0.273396,-0.1261118 0.590109,-0.2292925 0.703809,-0.2292925 0.113699,0 0.321167,-0.06003 0.461041,-0.1333876 0.643384,-0.3374544 1.071849,-0.4648104 1.365911,-0.4059993 0.178062,0.035614 0.359796,0.015638 0.436445,-0.047975 0.08167,-0.067788 0.296071,-0.086426 0.566996,-0.049282 0.332529,0.045576 0.524098,0.014586 0.809251,-0.1308765 0.411104,-0.209733 0.921439,-0.2428623 1.435789,-0.093204 0.292674,0.08515 0.355887,0.071646 0.503329,-0.1075996 0.129119,-0.1569616 0.234866,-0.1917363 0.451394,-0.1484313 0.155525,0.031102 0.307245,0.016944 0.33716,-0.031449 0.06262,-0.1013189 0.807632,-0.076821 0.984307,0.032368 0.06516,0.040268 0.118479,0.1533135 0.118479,0.2512017 0,0.097889 0.100584,0.2570271 0.223521,0.3536414 0.160544,0.1261678 0.337778,0.5401035 0.6290317,1.4691252 0.2838859,0.9055242 0.4754723,1.3567394 0.638785,1.5044429 0.1283033,0.11604002 0.2332785,0.2724433 0.2332785,0.34756281 0,0.31963227 0.6713179,0.50629547 1.255306,0.34904395 0.2756243,-0.0742182 0.416171,-0.0682979 0.5642571,0.0237527 0.1821761,0.1132473 0.2839365,0.0308877 1.3352385,-1.08058976 0.8844886,-0.9351217 1.22681,-1.2324803 1.536508,-1.3346893 0.2191617,-0.07233 0.4404642,-0.2099658 0.4917843,-0.3058604 0.1402588,-0.2620726 0.6003156,-0.2280513 0.7521359,0.05562 0.067694,0.1264843 0.2966373,0.3082367 0.508765,0.4038956 0.3914116,0.1764997 0.646092,0.5693335 0.646092,0.9965612 0,0.1221737 -0.3811692,0.59854001 -0.9841199,1.22990604 -0.9293914,0.97319333 -2.5609247,3.21256446 -2.5609247,3.51501346 0,0.070923 -0.2381085,0.3861285 -0.5291279,0.700467 -0.6934074,0.7489628 -1.137717,1.7172432 -1.3915563,3.0326089 -0.108355,0.5614814 -0.2870359,1.2061781 -0.3970692,1.4326599 -0.2831142,0.5827306 -0.1911034,0.853703 0.3898398,1.1480882 0.4220227,0.2138548 0.4690269,0.2717003 0.5181069,0.6376273 0.080123,0.597352 0.3186029,0.779968 1.132087,0.866889 0.5181969,0.05537 0.744629,0.127491 0.9212574,0.293433 0.1882926,0.176898 0.3500399,0.22218 0.825306,0.231049 0.7509006,0.01402 1.3887123,0.297676 2.4115423,1.072516 1.70757398,1.293566 3.5315281,3.442271 4.600934,5.420118 1.0601796,1.960793 2.1010222,6.677121 1.9161377,8.682536 -0.043202,0.468613 -0.011162,0.78127 0.1294194,1.26303 0.1447402,0.495997 0.1750798,0.811779 0.1346533,1.401565 -0.048077,0.701452 -0.029132,0.813092 0.2408758,1.419711 0.1611845,0.362112 0.3192809,0.77923 0.3513301,0.926928 0.036512,0.168273 0.180204,0.340479 0.3848493,0.461226 0.5013122,0.295781 0.6691944,0.898657 0.6638978,2.384126 -0.00378,1.052855 -0.030571,1.2485 -0.2218234,1.618261 -0.194724,0.376477 -0.2119347,0.512216 -0.1640119,1.293467 0.029448,0.480064 0.081343,1.334688 0.1153347,1.89916 l 0.061786,1.026324 -0.7698407,1.568754 c -0.6124126,1.247973 -0.8680143,1.665055 -1.2499726,2.039666 -0.5830966,0.57189 -0.684379,0.81872 -0.684379,1.667861 0,0.926172 -0.1583248,1.958013 -0.5221074,3.402741 -0.4204071,1.6696 -0.6416907,2.182561 -1.5496286,3.592233 -0.4242586,0.658705 -0.7960501,1.266421 -0.82620289,1.350469 -0.0301548,0.08404 0.0304202,0.34275 0.13459619,0.574871 0.3682835,0.820597 2.1968405,7.944087 2.3525723,9.1649 l 0.088613,0.694633 H 1.506607 c -1.34110485,0 -2.0278088,-0.03307 -1.9890362,-0.09581 0.0325699,-0.05268 0.0135524,-0.09581 -0.0422506,-0.09581 -0.0558111,0 -0.10146793,0.04901 -0.10146793,0.108788 0,0.05988 -0.12865613,-0.03718 -0.28590602,-0.215571 -0.15724715,-0.178408 -0.28659365,-0.394973 -0.28743495,-0.481255 -8.147e-4,-0.08629 -0.1351368,-0.258756 -0.2984295,-0.383255 -0.3353499,-0.255679 -0.397333,-0.318464 -0.6553647,-0.663853 -0.101025,-0.135233 -0.3492091,-0.3005 -0.5515219,-0.367268 -0.6926243,-0.228583 -2.6598571,0.411352 -3.2293424,1.050499 -0.1378163,0.15467 -0.3349849,0.281225 -0.4381579,0.281225 -0.1031671,0 -0.3192824,0.128748 -0.4802526,0.2861 -0.2991328,0.292413 -0.5713639,0.399744 -0.9115831,0.359404 -0.1108892,-0.0132 -0.1815327,0.02775 -0.167671,0.09704 0.016189,0.08096 -0.1095461,0.119761 -0.3880384,0.119761 -0.2265957,0 -0.46912,-0.05388 -0.5389439,-0.119761 -0.1015639,-0.09582 -0.1357343,-0.09582 -0.1708652,0 -0.030438,0.08301 -0.2946965,0.119761 -0.861348,0.119761 H -10.708447 Z M -25.928143,45.143282 c 0.33151,-0.461622 0.351664,-0.548856 0.162989,-0.705436 -0.07269,-0.06031 -0.158247,-0.24008 -0.190121,-0.399445 -0.04223,-0.211107 -0.13637,-0.317085 -0.346887,-0.390475 -0.203415,-0.07093 -0.288939,-0.163177 -0.288939,-0.311714 0,-0.207269 -0.160096,-0.440941 -0.302104,-0.440941 -0.03969,0 -0.138274,0.140124 -0.219086,0.311389 -0.192052,0.406999 -0.07136,1.581638 0.221478,2.155662 0.189861,0.372151 0.222799,0.394587 0.436434,0.297244 0.12709,-0.05791 0.363897,-0.290237 0.526236,-0.516284 z m 23.9228014,-0.305829 c -0.097393,-0.0974 -0.1777548,0.04926 -0.097843,0.178537 0.060361,0.09766 0.082933,0.09775 0.1153865,2.75e-4 0.022188,-0.06656 0.014289,-0.147081 -0.017545,-0.178923 z M 0.47094896,43.61013 c 0.1262583,-0.385318 0.1180404,-0.380324 0.38809028,-0.235804 0.13158168,0.07042 0.25598786,0.110012 0.27645786,0.08798 0.020474,-0.02202 0.067959,-0.268332 0.105527,-0.547313 0.068036,-0.505216 0.06736,-0.506998 -0.1703379,-0.44734 -0.13471268,0.03384 -0.26694875,0.01414 -0.30362679,-0.04523 -0.10022978,-0.162175 -0.24336399,-0.02159 -0.24336399,0.238983 0,0.282631 -0.28415412,0.319278 -0.53450856,0.06896 -0.34989598,-0.349896 -0.90245783,-0.512739 -1.14220066,-0.3366 -0.3086385,0.226759 -0.3384948,0.373967 -0.1771553,0.873522 0.127342,0.394295 0.2098789,0.505293 0.40792979,0.548606 0.13655719,0.0299 0.35521168,0.08617 0.4858998,0.125123 0.41913316,0.124928 0.80392021,-0.01533 0.90728847,-0.330842 z M -27.357339,42.129261 c -0.05283,-0.09874 -0.09607,-0.281517 -0.09607,-0.406187 0,-0.124662 -0.03676,-0.267621 -0.08168,-0.317684 -0.04492,-0.05003 -0.13676,-0.295814 -0.204078,-0.546123 -0.102319,-0.380495 -0.159618,-0.45511 -0.349465,-0.45511 -0.260973,0 -0.281793,0.05482 -0.09269,0.243883 0.07391,0.07393 0.164283,0.35178 0.200829,0.617491 0.04546,0.330568 0.124039,0.513928 0.248863,0.580731 0.100329,0.05371 0.182418,0.175153 0.182418,0.269909 0,0.205975 0.09116,0.314224 0.205246,0.243712 0.04548,-0.0281 0.03947,-0.1319 -0.01336,-0.230622 z m 7.351316,-9.831204 c -0.03184,-0.03187 -0.114477,-0.0352 -0.183641,-0.0078 -0.07643,0.03058 -0.05373,0.05328 0.05789,0.05791 0.101003,0.0043 0.157592,-0.01851 0.125753,-0.05028 z m -3.346632,-0.727769 c 0.171682,-0.171683 0.139152,-0.256656 -0.07666,-0.200219 -0.105392,0.02758 -0.191623,0.109756 -0.191623,0.182649 0,0.163083 0.115221,0.170622 0.268275,0.01756 z m 4.015538,-4.225955 c -0.04841,-0.138149 -0.711356,-0.132158 -0.851205,0.0078 -0.06808,0.06808 0.05556,0.100165 0.396153,0.102801 0.343329,0.0028 0.482836,-0.03121 0.455052,-0.110493 z m 13.3221927,-5.837529 c 0.091918,-0.0808 0.350363,-0.239039 0.5743246,-0.351642 0.2239606,-0.112606 0.407199,-0.246975 0.407199,-0.2986 0,-0.143081 -0.6709244,-0.104054 -1.1018367,0.06409 -0.210786,0.08225 -0.6681213,0.203355 -1.0163015,0.269124 -0.8231298,0.155478 -0.9455424,0.231592 -0.6494006,0.403782 0.3068137,0.178396 1.5532523,0.11785 1.7860152,-0.08676 z m 2.3214259,-0.246751 c 8.147e-4,-0.06898 -0.041651,-0.09877 -0.094346,-0.06621 -0.052693,0.03257 -0.09515,0.153681 -0.094343,0.269138 0.00111,0.170663 0.018847,0.183045 0.094343,0.06621 0.051083,-0.07905 0.093539,-0.200156 0.094346,-0.269138 z M -11.165367,6.1091156 c 0,-0.049584 -0.04312,-0.1168042 -0.09582,-0.1493729 -0.05269,-0.03257 -0.09581,0.00797 -0.09581,0.090158 0,0.082154 0.04312,0.149372 0.09581,0.149372 0.05269,0 0.09582,-0.040571 0.09582,-0.090157 z M -24.960831,47.997253 c 8.14e-4,-0.03949 0.04326,-0.136527 0.09435,-0.215571 0.07511,-0.116215 0.09315,-0.102465 0.09435,0.07187 8.15e-4,0.118572 -0.04165,0.21558 -0.09435,0.21558 -0.05269,0 -0.09515,-0.0323 -0.09435,-0.07187 z M -35.309994,37.02823 c 0,-0.244243 0.04472,-0.561696 0.09938,-0.705452 0.06861,-0.180482 0.06861,-0.292114 0,-0.360741 -0.123951,-0.123943 -0.130556,-0.513064 -0.0095,-0.556077 0.04947,-0.01757 0.120555,-0.264803 0.15798,-0.549421 0.04991,-0.379544 0.03872,-0.499348 -0.04202,-0.449447 -0.06054,0.03743 -0.110074,0.139747 -0.110074,0.227409 0,0.12665 -0.03021,0.116249 -0.147104,-0.05063 -0.104584,-0.149307 -0.141896,-0.411625 -0.12909,-0.907574 0.0099,-0.383664 -0.03266,-1.042489 -0.0946,-1.464061 -0.133018,-0.905347 0.0096,-2.214584 0.292329,-2.682733 0.229195,-0.379569 0.217098,-0.538104 -0.01939,-0.254266 l -0.187304,0.224789 -0.102844,-0.2705 c -0.05657,-0.148768 -0.09207,-0.445704 -0.07889,-0.659853 0.01318,-0.214143 -0.0092,-0.442887 -0.04959,-0.508321 -0.04044,-0.06543 -0.120275,-0.857643 -0.17741,-1.760462 -0.07808,-1.233722 -0.0761,-1.745366 0.008,-2.059639 0.09499,-0.355157 0.088,-0.454535 -0.04643,-0.659694 -0.137606,-0.210014 -0.143013,-0.309708 -0.04142,-0.763673 0.09051,-0.404456 0.09194,-0.765056 0.0063,-1.600042 -0.08371,-0.816483 -0.08354,-1.240583 8.16e-4,-1.748599 0.06118,-0.368877 0.09743,-0.950935 0.08055,-1.293463 -0.01689,-0.342528 -0.03109,-1.291067 -0.03155,-2.107864 -8.14e-4,-1.471241 0.119507,-2.216792 0.456258,-2.826453 0.05822,-0.105393 0.18226,-0.342529 0.275656,-0.526967 0.0934,-0.184437 0.171529,-0.272696 0.173629,-0.196132 0.0024,0.08814 0.135618,0.01504 0.363115,-0.199317 0.528827,-0.49826 1.403859,-0.850107 2.114189,-0.850107 0.915092,0 0.925635,0.305753 0.01425,0.413693 -0.49238,0.05832 -1.125778,0.336613 -1.332194,0.58533 -0.165851,0.199837 0.01926,0.2015 0.322349,0.003 0.316968,-0.207684 1.136874,-0.319191 1.646684,-0.223948 0.676759,0.126432 2.721635,1.217546 2.450936,1.307781 -0.04865,0.01622 -0.320608,-0.06384 -0.604358,-0.177904 -0.923568,-0.371257 -1.701857,-0.476341 -2.418091,-0.326486 -0.68411,0.143136 -0.921741,0.244652 -1.113478,0.47568 -0.172238,0.207535 -0.05195,0.295773 0.228813,0.167849 0.358948,-0.163558 1.397544,-0.259722 1.397544,-0.1294 0,0.0595 -0.08463,0.108188 -0.188077,0.108188 -0.431423,0 -1.536538,0.553309 -1.536538,0.769317 0,0.03791 0.388038,0.04681 0.862308,0.01976 0.579861,-0.03306 0.862307,-0.01555 0.862307,0.05349 0,0.05646 -0.08623,0.130013 -0.191625,0.163465 -0.287191,0.09115 -0.230734,0.239531 0.09114,0.239531 0.420847,0 1.253484,0.237303 1.794418,0.511416 0.656234,0.332538 2.23436,1.396755 2.23436,1.506751 0,0.136699 -0.111955,0.10874 -0.47906,-0.11964 -0.592843,-0.368815 -1.373482,-0.759806 -1.990285,-0.996861 -0.48686,-0.187111 -0.768931,-0.229599 -1.485087,-0.223694 -0.486241,0.004 -1.021356,0.05791 -1.189146,0.119764 -0.427613,0.157657 -1.136055,0.674908 -1.3302,0.971213 -0.18639,0.284463 -0.111446,0.436074 0.130828,0.264669 0.370174,-0.26189 0.88783,-0.500892 1.093426,-0.504833 0.120666,-0.0023 0.391276,-0.06541 0.60135,-0.140218 0.244985,-0.08723 0.415062,-0.102909 0.474271,-0.0437 0.09645,0.09645 0.09131,0.09866 -0.32524,0.140321 -0.264338,0.02644 -1.536081,1.309639 -1.35708,1.369306 0.05903,0.01968 0.302602,-0.0388 0.541258,-0.129937 0.59313,-0.22652 1.933271,-0.143227 2.338532,0.145343 0.151453,0.107847 0.308999,0.196084 0.350096,0.196084 0.144184,0 0.901722,0.401164 0.901722,0.477517 0,0.04244 -0.161683,0.03759 -0.359296,-0.01077 -0.879694,-0.215328 -1.495611,-0.291709 -1.883382,-0.23356 -0.552295,0.08282 -1.613662,0.72718 -2.220957,1.348351 -0.557173,0.5699 -0.666074,0.773435 -0.456799,0.853739 0.217346,0.08341 0.225647,0.07632 0.225647,-0.192662 0,-0.167923 0.06213,-0.264749 0.191622,-0.298611 0.105394,-0.02756 0.191625,-0.104639 0.191625,-0.171283 0,-0.284222 1.046261,-0.857867 1.452037,-0.796126 0.198608,0.03022 0.18021,0.05428 -0.158576,0.207454 -0.210785,0.0953 -0.447922,0.212896 -0.526966,0.261335 -0.07905,0.04843 -0.240726,0.130014 -0.359296,0.181279 -0.118566,0.05126 -0.215576,0.137394 -0.215576,0.191395 0,0.151576 0.260082,0.116044 0.321464,-0.04392 0.0317,-0.08262 0.117707,-0.117861 0.205444,-0.08419 0.08301,0.03185 0.22476,-0.0061 0.315015,-0.08456 0.376766,-0.3271 1.513396,-0.382 2.314343,-0.111787 0.430902,0.145372 1.251086,0.581646 1.251086,0.665481 0,0.02374 -0.580134,0.01532 -1.289191,-0.01868 -1.106507,-0.05307 -1.354279,-0.03748 -1.748567,0.10999 -0.568113,0.212489 -1.616544,0.941651 -1.763878,1.226743 -0.06015,0.116399 -0.222405,0.307095 -0.360559,0.423766 -0.206769,0.174624 -0.221003,0.212742 -0.08051,0.215577 0.09388,0.0019 0.196321,-0.06339 0.227665,-0.14506 0.06402,-0.166816 0.934637,-0.757413 1.517896,-1.029683 0.505962,-0.236183 1.274962,-0.311577 1.710827,-0.167731 0.192022,0.06338 0.349131,0.149441 0.349131,0.191265 0,0.04182 -0.204798,0.103624 -0.455107,0.137342 -0.820982,0.110589 -0.998264,0.159816 -1.447897,0.402044 -0.803402,0.432811 -1.450415,0.948973 -1.450415,1.157087 0,0.185033 0.263795,0.158749 0.565926,-0.05639 0.143091,-0.101891 0.386882,-0.216832 0.541754,-0.255423 0.25636,-0.06388 0.269638,-0.05566 0.148176,0.09176 -0.07338,0.08906 -0.115688,0.179656 -0.09402,0.201329 0.02167,0.02167 0.36196,-0.0018 0.756197,-0.05259 0.394235,-0.0506 0.889255,-0.0667 1.100041,-0.03578 0.631918,0.09266 1.971659,0.529544 1.913333,0.62392 -0.03057,0.04944 -0.365074,0.0616 -0.764986,0.0278 -1.0034,-0.08482 -1.75963,0.09178 -2.277536,0.53189 -0.417121,0.354457 -0.578422,0.468556 -1.068439,0.755762 -0.356993,0.209238 -1.011024,0.904969 -1.221523,1.299404 -0.461806,0.865341 -0.568417,1.117002 -0.511923,1.208416 0.122519,0.198238 0.304557,0.09296 0.572657,-0.331184 0.15001,-0.23732 0.625023,-0.769695 1.055585,-1.183051 0.728106,-0.69901 0.82972,-0.763046 1.453319,-0.915867 0.722182,-0.17698 2.216872,-0.265294 2.296958,-0.135713 0.02692,0.04356 -0.115275,0.08023 -0.315999,0.08149 -0.609018,0.0038 -1.879492,0.400195 -2.207653,0.688773 -0.09314,0.0819 -0.348929,0.239188 -0.568416,0.349509 -0.219489,0.110322 -0.650642,0.485195 -0.958121,0.833051 -0.68185,0.771389 -0.7541,0.891923 -0.616885,1.029137 0.05816,0.05816 0.105739,0.18335 0.105739,0.278204 0,0.09486 0.03421,0.172461 0.07601,0.172461 0.0418,0 0.419068,-0.370795 0.838355,-0.823991 0.710285,-0.767721 0.908066,-0.907548 1.796827,-1.270303 0.645282,-0.263375 0.599222,-0.05351 -0.139256,0.634519 -1.541206,1.435921 -2.158434,2.184061 -2.612038,3.166036 -0.08054,0.17434 -0.233803,0.428075 -0.3406,0.563839 -0.205848,0.261693 -0.260268,0.604255 -0.09599,0.604255 0.05401,0 0.139165,-0.107785 0.189252,-0.239522 0.05009,-0.131746 0.131215,-0.239532 0.180283,-0.239532 0.123287,0 0.02012,0.352499 -0.14273,0.487647 -0.07335,0.06091 -0.133367,0.247189 -0.133367,0.414033 0,0.166844 -0.08623,0.472492 -0.191621,0.679214 -0.216025,0.423713 -0.271643,1.028551 -0.07665,0.833566 0.181576,-0.181578 0.285216,-0.134033 0.1714,0.07864 -0.05699,0.106483 -0.07806,0.234956 -0.04682,0.285499 0.03123,0.05055 -0.009,0.285629 -0.08937,0.522402 -0.142499,0.419721 -0.120816,0.723117 0.05168,0.723117 0.04706,0 0.08556,-0.100605 0.08556,-0.223563 0,-0.122957 0.02646,-0.250017 0.05879,-0.282347 0.03233,-0.0323 0.1558,-0.336429 0.274375,-0.675761 0.118571,-0.339333 0.286136,-0.717704 0.372366,-0.840814 0.08623,-0.123103 0.156781,-0.316743 0.156781,-0.430311 0,-0.113568 0.06468,-0.260151 0.143717,-0.325755 0.07905,-0.06562 0.143718,-0.180643 0.143718,-0.255662 0,-0.07504 0.183241,-0.482806 0.407199,-0.90622 0.669681,-1.266061 2.700304,-3.235887 3.01321,-2.922982 0.07138,0.07138 0.06171,0.540657 -0.02124,1.031668 -0.05004,0.296175 -0.132487,0.40695 -0.425395,0.571574 -0.480159,0.269866 -1.397488,1.383708 -1.926193,2.338818 -0.233641,0.422077 -0.498927,0.89635 -0.589526,1.053934 -0.233938,0.406923 -0.30943,0.573587 -0.650517,1.436263 -0.454876,1.150472 -0.60189,1.49264 -0.82644,1.923489 -0.200235,0.384197 -0.314755,0.774843 -0.367192,1.252535 -0.01442,0.13131 -0.07492,0.287462 -0.134457,0.347 -0.08046,0.08044 -0.108252,-0.006 -0.108252,-0.335829 z m 0.272634,-5.96076 c 0.02119,-0.109233 -0.01336,-0.155304 -0.09582,-0.127848 -0.07091,0.02356 -0.143812,0.119779 -0.162017,0.213695 -0.02118,0.109232 0.01336,0.155295 0.09581,0.12784 0.07091,-0.02364 0.143815,-0.11977 0.16202,-0.213687 z m 0.167637,-10.354347 c -0.03339,-0.313221 -0.19195,-0.31412 -0.231058,-0.0013 -0.02064,0.165049 0.01554,0.24251 0.11323,0.24251 0.09632,0 0.135082,-0.07936 0.117828,-0.241199 z m 0.469943,-2.441538 c 0.03257,-0.05269 0.01356,-0.09582 -0.04225,-0.09582 -0.05582,0 -0.101472,0.04312 -0.101472,0.09582 0,0.05269 0.01901,0.09581 0.04225,0.09581 0.02325,0 0.0689,-0.04312 0.101472,-0.09581 z m 1.698494,16.630769 c 0.01436,-0.154028 0.08003,-0.297741 0.145886,-0.319373 0.165558,-0.05439 0.150202,0.188655 -0.02613,0.413435 -0.139161,0.177414 -0.144682,0.17308 -0.119764,-0.09406 z m 0.553089,-1.247292 c 0,-0.0759 0.04312,-0.16471 0.09582,-0.197272 0.05269,-0.03255 0.09581,0.02955 0.09581,0.13806 0,0.108504 -0.04312,0.197281 -0.09581,0.197281 -0.05269,0 -0.09582,-0.06211 -0.09582,-0.138069 z m 0.486353,-0.796097 c 0.405463,-0.679024 0.957213,-1.365323 1.097648,-1.365323 0.102818,0 0.140616,0.116105 0.140616,0.431964 0,0.409921 -0.0099,0.425813 -0.194704,0.311388 -0.174028,-0.107776 -0.229647,-0.07984 -0.523843,0.26267 -0.18103,0.21079 -0.355013,0.4587 -0.386629,0.55092 -0.03162,0.09221 -0.122768,0.167675 -0.202559,0.167675 -0.117209,0 -0.103865,-0.06904 0.06947,-0.359294 z m -3.073277,-0.593178 c 0,-0.0496 0.04312,-0.116806 0.09582,-0.149368 0.05269,-0.03255 0.09581,0.0078 0.09581,0.09015 0,0.08215 -0.04312,0.149376 -0.09581,0.149376 -0.05269,0 -0.09582,-0.0406 -0.09582,-0.09016 z m 0.688649,-2.790183 c 0.02306,-0.06913 0.09851,-0.144622 0.16767,-0.167676 0.07186,-0.02399 0.107787,0.01199 0.08383,0.08386 -0.02306,0.06913 -0.09851,0.144621 -0.167672,0.167675 -0.07186,0.02399 -0.107789,-0.01199 -0.08383,-0.08386 z m 29.6913209,-1.870332 c 0.00462,-0.111618 0.027302,-0.13432 0.057884,-0.05789 0.027679,0.06917 0.024277,0.151802 -0.00754,0.183641 -0.031842,0.03184 -0.054483,-0.02474 -0.05032,-0.125753 z M -31.669137,21.912439 c 0.188833,-0.122032 0.57487,-0.122032 0.57487,0 0,0.05269 -0.161682,0.09515 -0.359292,0.09435 -0.267256,-0.0011 -0.322483,-0.02525 -0.215578,-0.09435 z m 0.47906,-9.980587 c -0.477564,-0.134823 -0.582048,-0.271295 -0.207709,-0.271295 0.304589,0 0.974206,0.227136 0.974206,0.330452 0,0.07829 -0.38486,0.04858 -0.766497,-0.05916 z m -3.832482,-0.140414 c 0,-0.231691 0.269877,-0.917461 0.497254,-1.263552 0.149626,-0.227746 0.245341,-0.457293 0.212702,-0.510106 -0.03264,-0.052813 0.02791,-0.1898429 0.134557,-0.304509 0.106647,-0.1146662 0.22384,-0.3706429 0.260428,-0.5688374 0.03658,-0.1981946 0.107885,-0.3859132 0.158432,-0.4171539 0.05055,-0.031243 0.233814,-0.3649083 0.407256,-0.741485 0.484875,-1.0527507 1.605389,-1.9179241 2.066041,-1.5952321 0.121536,0.085135 0.09936,0.1378986 -0.143719,0.3418468 -0.158088,0.1326438 -0.405038,0.2661666 -0.54877,0.2967179 -0.267576,0.056874 -0.526282,0.2827988 -0.431906,0.3771756 0.02896,0.028964 0.191685,-0.019241 0.361612,-0.1071129 0.286398,-0.1481014 0.375108,-0.1485931 1.214826,-0.00677 1.237564,0.2090857 3.218255,1.1129767 2.97403,1.3572035 -0.03323,0.03323 -0.289529,-0.047168 -0.56955,-0.1786561 -1.457517,-0.6844125 -2.761006,-0.8456432 -3.742786,-0.4629491 -0.482187,0.1879561 -0.277738,0.2786621 0.526968,0.2337952 0.757296,-0.042225 0.818578,-0.029761 1.461132,0.2971411 l 0.670685,0.3412154 -0.47906,-0.051811 c -0.263483,-0.028501 -0.737754,-0.083011 -1.053934,-0.1211432 -0.624647,-0.075335 -1.115337,0.00728 -1.748037,0.2942897 -0.708679,0.3214777 -0.619613,0.4847455 0.119234,0.2185665 0.210787,-0.075933 0.663499,-0.1394518 1.006027,-0.1411381 1.118279,-0.00551 1.982792,0.3285383 3.060088,1.1824181 1.025204,0.812591 1.455305,1.303352 1.142247,1.303352 -0.06006,0 -0.162972,0.07353 -0.228689,0.163413 -0.108836,0.14884 -0.169583,0.125396 -0.681248,-0.262913 -0.308967,-0.234479 -0.863566,-0.55449 -1.23244,-0.711136 -0.599243,-0.254474 -0.777845,-0.285031 -1.67671,-0.286869 -1.291563,-0.0027 -1.807414,0.179626 -3.19912,1.130358 -0.36778,0.251244 -0.53755,0.312464 -0.53755,0.193841 z m 7.377524,-0.31685 c 0,-0.113045 -0.186866,-0.233973 -0.255498,-0.165342 -0.06864,0.06864 0.0523,0.255499 0.165343,0.255499 0.04959,0 0.09015,-0.04058 0.09015,-0.09016 z m -0.814402,-0.638501 c -0.255337,-0.196797 -0.526966,-0.343431 -0.526966,-0.284472 0,0.108566 0.43073,0.438027 0.568987,0.435211 0.118252,-0.0023 0.109447,-0.034 -0.04201,-0.150739 z m -4.215727,-2.433138 c 0.03257,-0.052694 -0.0055,-0.095813 -0.0845,-0.095813 -0.07905,0 -0.170364,0.043116 -0.202931,0.095813 -0.03257,0.052694 0.0055,0.095812 0.0845,0.095812 0.07905,0 0.170362,-0.043116 0.202931,-0.095812 z m 3.35342,0.6706838 c -0.03257,-0.052691 -0.01356,-0.095817 0.04225,-0.095817 0.05581,0 0.101472,0.043116 0.101472,0.095817 0,0.052691 -0.01901,0.095817 -0.04225,0.095817 -0.02325,0 -0.0689,-0.043116 -0.101472,-0.095817 z m 3.257609,-1.2743087 c -0.862167,-0.7585309 -1.472742,-1.1746769 -2.310178,-1.5745223 l -0.755806,-0.3608708 -1.604428,0.030686 c -1.457799,0.027876 -1.598893,0.016259 -1.543877,-0.1271056 0.0333,-0.086782 0.166968,-0.1982487 0.297038,-0.2477005 0.192376,-0.073141 0.225247,-0.134699 0.176223,-0.3300249 -0.128193,-0.5107644 0.905458,-1.0620832 1.525297,-0.81355 0.158093,0.063384 0.416785,0.1480228 0.574874,0.1880777 0.267734,0.067839 0.825787,0.3429965 1.868335,0.9212239 0.237134,0.1315208 0.538942,0.3854894 0.670683,0.5643717 0.325294,0.4416961 0.724561,0.9221988 1.279035,1.5392698 0.255547,0.2843991 0.449568,0.5618258 0.431154,0.6165049 -0.01841,0.054681 -0.292171,-0.1281824 -0.60835,-0.4063579 z m 14.713878,-0.3305423 c 0.006,-0.2334782 0.01611,-0.2416619 0.08908,-0.071857 0.112457,0.2616984 0.112457,0.3353414 0,0.3353414 -0.05269,0 -0.09278,-0.1185672 -0.08908,-0.2634827 z M -26.686913,5.7145582 c 0,-0.055803 0.04312,-0.07482 0.09582,-0.04225 0.05269,0.03257 0.09582,0.078231 0.09582,0.1014669 0,0.023241 -0.04312,0.04225 -0.09582,0.04225 -0.05269,0 -0.09582,-0.04566 -0.09582,-0.1014669 z m -0.428561,-0.3013318 c -0.03719,-0.089798 -0.268568,-0.2589373 -0.514169,-0.3758658 -0.245599,-0.1169293 -0.547928,-0.290238 -0.671843,-0.3851323 -0.123912,-0.094894 -0.372291,-0.2001119 -0.551956,-0.2338166 -0.179664,-0.03371 -0.486214,-0.1426274 -0.681222,-0.2420481 -0.19501,-0.099422 -0.511226,-0.1807669 -0.702702,-0.1807669 -0.222375,0 -0.408658,-0.066871 -0.515661,-0.1851085 -0.16185,-0.1788412 -0.15437,-0.1918196 0.220862,-0.3832476 0.508344,-0.2593384 0.561905,-0.2542377 1.284305,0.1223014 1.157921,0.6035512 2.35343,1.6130712 2.247777,1.898088 -0.03601,0.097153 -0.06441,0.088687 -0.115391,-0.034404 z m 2.882781,-1.5918038 c -0.200446,-0.3175279 -0.617372,-0.6881337 -0.774141,-0.6881337 -0.118135,0 -0.03759,0.2052211 0.140349,0.3575734 0.212597,0.1820331 0.260841,0.6005469 0.06923,0.6005469 -0.166452,0 -0.481673,-0.2244738 -1.218969,-0.868044 -0.342529,-0.2989855 -0.898881,-0.7447643 -1.236342,-0.9906178 -0.607089,-0.4422905 -0.61947,-0.4463383 -1.173694,-0.3836349 -0.367941,0.041625 -0.560136,0.02881 -0.560136,-0.037351 0,-0.105354 0.692996,-0.735952 0.981388,-0.89302287 0.14981,-0.0815879 0.155601,-0.0659502 0.05629,0.15199267 -0.136721,0.3000677 -0.03815,0.4180022 0.216483,0.2589859 0.165867,-0.103584 0.238367,-0.080986 0.541225,0.1686491 0.19234,0.1585407 0.373666,0.2619878 0.402949,0.2298817 0.02929,-0.032107 -0.0016,-0.077922 -0.06854,-0.1018201 -0.129939,-0.046352 -0.405187,-0.5205705 -0.405187,-0.69808071 0,-0.0586212 0.09701,-0.0931019 0.215577,-0.0766169 0.161975,0.0225176 0.223192,-0.0236302 0.246193,-0.1856006 0.03743,-0.26352307 0.06726,-0.26554516 0.372735,-0.0252532 0.284174,0.22353139 0.455326,0.16724459 0.311069,-0.10230087 -0.05528,-0.10328384 -0.0744,-0.23001311 -0.04251,-0.28162186 0.118683,-0.19203026 0.391836,-0.074504 0.717367,0.30865317 0.184439,0.21708745 0.426235,0.49143137 0.53733,0.60965377 0.23338,0.2483559 0.346336,0.5921575 0.22017,0.6701309 -0.116782,0.072174 -0.110563,0.2339708 0.009,0.2339708 0.05269,0 0.09582,-0.064669 0.09582,-0.1437171 0,-0.3165453 0.417457,-0.024123 0.512922,0.3592944 0.07859,0.3156408 0.06808,0.317468 -0.379609,0.066015 -0.206527,-0.1159989 -0.386906,-0.1621379 -0.437208,-0.1118338 -0.112092,0.1120917 0.0024,0.405114 0.15845,0.405114 0.06682,0 0.146245,0.1237748 0.176504,0.2750562 0.03026,0.1512831 0.208108,0.4194622 0.395224,0.5959561 0.187118,0.176493 0.340212,0.3976403 0.340212,0.4914389 0,0.2767739 -0.172875,0.196431 -0.420139,-0.1952582 z m -0.729605,-1.9303191 c 0,-0.050843 -0.08623,-0.13859 -0.191625,-0.1949939 -0.148232,-0.079332 -0.191623,-0.072871 -0.191623,0.02857 0,0.072113 0.02874,0.1598643 0.06388,0.1949943 0.09648,0.096482 0.319372,0.076542 0.319372,-0.02857 z m -0.862308,-0.8656789 c 0,-0.0526907 -0.04566,-0.0958171 -0.101472,-0.0958171 -0.05581,0 -0.07482,0.0431162 -0.04225,0.0958171 0.03257,0.052691 0.07823,0.095817 0.101462,0.095817 0.02325,0 0.04225,-0.043116 0.04225,-0.095817 z m -2.730643,2.474652 c -0.368876,-0.1633656 -0.821588,-0.3242339 -1.006024,-0.3574853 -0.440062,-0.079335 -0.45328,-0.3333085 -0.01953,-0.3749988 0.402884,-0.038721 1.033708,0.2646221 1.455693,0.7000003 0.179317,0.1850091 0.306797,0.334835 0.283285,0.3329453 -0.02353,-0.00189 -0.344557,-0.1370978 -0.713431,-0.3004615 z"
       id="path2311"
       sodipodi:nodetypes="ccsssssssccssssscsssscscsccssscssssssssssccsssscsssccsssssscssccsscsscsscssscsssccssssssscsscsssccsssscscccssscccsscscsscsccscsssccccsscssccssssscssscsscsscccssscccsccsssssscccsscscsssssscsssscsscsscssssscscssscscscsssccssssssssssssssccscscscscsscssssccscsssssssscssscscscsscsscccccsssscscssssssssscsssssccscscscsccscssssscscssscsssccccscsccccssssssscsscsssssssscsscsssssscssscsssscsssssssccsssssssccsssscsccscssssscsssscccscssccssssssssssccsscssscssscssccssscsssssssssssssssssssssssssssssssscssccsssssssscssssscsssssscsssssccscscsssssscscccssssccscsscssscsccscscsscccccccccscccccccsssssssssscssssssssssssssccsscssssccccscscsscccccsccscscsscsscssscsssssssccssccssscssscsscssssscsssccsscsscssscssssssssccccssscsssscsssssssssscssscssssccsscssssscsssscssscssscscssscsssssssssccssssssssssccssssssssssscccsscsccccsccssssscssscssssssscscsssccssccsscsscscccsscccscccssssssssssssccssscsssssssssssssssssssscssssssscsssssssscssscsscsscssssssssssssccssscsscssscccsssscc" />
  </g>
</svg>
